M48
;DRILL file {kicad (2015-03-31 BZR 5561)-product} date Tue 28 Apr 2015 10:13:34 PM CDT
;FORMAT={-:-/ absolute / inch / decimal}
FMAT,2
INCH,TZ
T1C0.016
T2C0.031
T3C0.040
%
G90
G05
M72
T1
X2.98Y-4.27
X3.Y-4.33
X3.02Y-5.93
X3.08Y-4.62
X3.08Y-5.97
X3.15Y-5.
X3.15Y-5.03
X3.17Y-4.35
X3.18Y-5.15
X3.2Y-4.27
X3.21Y-4.55
X3.22Y-4.7
X3.2214Y-5.05
X3.24Y-5.28
X3.25Y-5.48
X3.26Y-4.2
X3.2866Y-4.2645
X3.3Y-4.16
X3.3Y-4.34
X3.34Y-5.33
X3.36Y-4.06
X3.37Y-5.66
X3.42Y-4.82
X3.44Y-5.53
X3.4494Y-4.1994
X3.45Y-5.86
X3.48Y-4.32
X3.48Y-4.69
X3.48Y-5.83
X3.49Y-4.55
X3.5057Y-4.2054
X3.52Y-4.73
X3.54Y-4.48
X3.56Y-4.21
X3.59Y-5.
X3.66Y-5.02
X3.68Y-4.92
X3.7Y-4.51
X3.7349Y-5.6845
X3.74Y-5.45
X3.74Y-5.61
X3.751Y-4.6052
X3.78Y-4.68
X3.79Y-5.65
X3.817Y-5.287
X3.82Y-4.495
X3.8345Y-4.608
X3.88Y-5.57
X3.89Y-4.61
X3.89Y-4.68
X3.89Y-5.25
X3.91Y-4.94
X3.93Y-5.67
X3.9351Y-4.12
X3.97Y-4.59
X3.98Y-4.6525
X4.Y-4.28
X4.14Y-5.49
X4.14Y-5.57
X4.19Y-4.64
X4.19Y-5.02
X4.22Y-5.69
X4.27Y-4.89
X4.43Y-5.7
X4.44Y-4.74
X4.48Y-4.46
X4.48Y-4.5
X4.53Y-4.68
X4.54Y-4.81
X4.57Y-4.29
X4.57Y-4.34
X4.57Y-4.39
X4.58Y-4.25
X4.58Y-5.865
X4.607Y-4.203
X4.68Y-5.685
X4.695Y-4.92
X4.695Y-4.94
X4.695Y-4.96
X4.695Y-4.98
X4.695Y-5.
X4.7Y-5.1
X4.7Y-5.12
X4.7Y-5.14
X4.7Y-5.16
X4.7Y-5.18
X4.7Y-5.435
X4.7Y-5.455
X4.7Y-5.475
X4.7Y-5.495
X4.7Y-5.515
X4.705Y-4.57
X4.705Y-4.59
X4.705Y-4.61
X4.705Y-4.63
X4.705Y-4.65
X4.77Y-4.17
X4.77Y-4.21
X4.81Y-4.17
X4.81Y-4.21
T2
X4.24Y-5.29
X4.34Y-5.19
X4.44Y-5.29
T3
X4.14Y-4.06
X4.24Y-4.06
X4.76Y-4.06
X4.86Y-4.06
T0
M30
