G04 #@! TF.FileFunction,Legend,Top*
%FSLAX46Y46*%
G04 Gerber Fmt 4.6, Leading zero omitted, Abs format (unit mm)*
G04 Created by KiCad (PCBNEW (2015-03-31 BZR 5561)-product) date Tue 28 Apr 2015 10:13:20 PM CDT*
%MOMM*%
G01*
G04 APERTURE LIST*
%ADD10C,0.100000*%
%ADD11C,0.150000*%
G04 APERTURE END LIST*
D10*
D11*
X114909186Y-134366000D02*
G75*
G03X114909186Y-134366000I-4673186J0D01*
G01*
X114046000Y-137033000D02*
X115316000Y-138303000D01*
X112903000Y-138176000D02*
X114173000Y-139446000D01*
X114173000Y-139446000D02*
X115316000Y-138303000D01*
X94330000Y-150206000D02*
X93630000Y-150206000D01*
X93630000Y-149006000D02*
X94330000Y-149006000D01*
X94396000Y-146908000D02*
X94396000Y-146208000D01*
X95596000Y-146208000D02*
X95596000Y-146908000D01*
X98394000Y-150206000D02*
X97694000Y-150206000D01*
X97694000Y-149006000D02*
X98394000Y-149006000D01*
X99222000Y-146908000D02*
X99222000Y-146208000D01*
X100422000Y-146208000D02*
X100422000Y-146908000D01*
X102458000Y-150206000D02*
X101758000Y-150206000D01*
X101758000Y-149006000D02*
X102458000Y-149006000D01*
X106522000Y-150206000D02*
X105822000Y-150206000D01*
X105822000Y-149006000D02*
X106522000Y-149006000D01*
X108620000Y-146908000D02*
X108620000Y-146208000D01*
X109820000Y-146208000D02*
X109820000Y-146908000D01*
X110586000Y-150206000D02*
X109886000Y-150206000D01*
X109886000Y-149006000D02*
X110586000Y-149006000D01*
X113954000Y-146908000D02*
X113954000Y-146208000D01*
X115154000Y-146208000D02*
X115154000Y-146908000D01*
X114650000Y-150206000D02*
X113950000Y-150206000D01*
X113950000Y-149006000D02*
X114650000Y-149006000D01*
X82134000Y-137826000D02*
X82134000Y-138526000D01*
X80934000Y-138526000D02*
X80934000Y-137826000D01*
X77764000Y-130144000D02*
X77764000Y-129444000D01*
X78964000Y-129444000D02*
X78964000Y-130144000D01*
X77632000Y-145638000D02*
X77632000Y-144938000D01*
X78832000Y-144938000D02*
X78832000Y-145638000D01*
X84928000Y-139862000D02*
X85628000Y-139862000D01*
X85628000Y-141062000D02*
X84928000Y-141062000D01*
X84994000Y-147990000D02*
X85694000Y-147990000D01*
X85694000Y-149190000D02*
X84994000Y-149190000D01*
X83286000Y-131410000D02*
X82586000Y-131410000D01*
X82586000Y-130210000D02*
X83286000Y-130210000D01*
X83286000Y-133442000D02*
X82586000Y-133442000D01*
X82586000Y-132242000D02*
X83286000Y-132242000D01*
X88366000Y-127854000D02*
X87666000Y-127854000D01*
X87666000Y-126654000D02*
X88366000Y-126654000D01*
X98268000Y-131476000D02*
X98268000Y-132176000D01*
X97068000Y-132176000D02*
X97068000Y-131476000D01*
X86202000Y-136998000D02*
X85502000Y-136998000D01*
X85502000Y-135798000D02*
X86202000Y-135798000D01*
X99034000Y-127854000D02*
X98334000Y-127854000D01*
X98334000Y-126654000D02*
X99034000Y-126654000D01*
X102266000Y-140878000D02*
X102966000Y-140878000D01*
X102966000Y-142078000D02*
X102266000Y-142078000D01*
X96362000Y-140046000D02*
X95662000Y-140046000D01*
X95662000Y-138846000D02*
X96362000Y-138846000D01*
X110586000Y-141570000D02*
X109886000Y-141570000D01*
X109886000Y-140370000D02*
X110586000Y-140370000D01*
X96362000Y-142078000D02*
X95662000Y-142078000D01*
X95662000Y-140878000D02*
X96362000Y-140878000D01*
X116174000Y-143856000D02*
X115474000Y-143856000D01*
X115474000Y-142656000D02*
X116174000Y-142656000D01*
X115474000Y-140624000D02*
X116174000Y-140624000D01*
X116174000Y-141824000D02*
X115474000Y-141824000D01*
X117764000Y-142656000D02*
X117764000Y-141956000D01*
X118964000Y-141956000D02*
X118964000Y-142656000D01*
X104302000Y-128112000D02*
X104302000Y-127412000D01*
X105502000Y-127412000D02*
X105502000Y-128112000D01*
X111348000Y-123536000D02*
X110648000Y-123536000D01*
X110648000Y-122336000D02*
X111348000Y-122336000D01*
X100930000Y-123856000D02*
X100930000Y-124556000D01*
X99730000Y-124556000D02*
X99730000Y-123856000D01*
X96932000Y-122590000D02*
X97632000Y-122590000D01*
X97632000Y-123790000D02*
X96932000Y-123790000D01*
X92614000Y-122590000D02*
X93314000Y-122590000D01*
X93314000Y-123790000D02*
X92614000Y-123790000D01*
X106330000Y-122590000D02*
X107030000Y-122590000D01*
X107030000Y-123790000D02*
X106330000Y-123790000D01*
X92294000Y-118776000D02*
X92294000Y-119476000D01*
X91094000Y-119476000D02*
X91094000Y-118776000D01*
X114142000Y-129378000D02*
X113442000Y-129378000D01*
X113442000Y-128178000D02*
X114142000Y-128178000D01*
X84490000Y-111348000D02*
X84490000Y-110648000D01*
X85690000Y-110648000D02*
X85690000Y-111348000D01*
X93060000Y-116424000D02*
X92360000Y-116424000D01*
X92360000Y-115224000D02*
X93060000Y-115224000D01*
X87468000Y-113192000D02*
X88168000Y-113192000D01*
X88168000Y-114392000D02*
X87468000Y-114392000D01*
X84678000Y-123028000D02*
X83978000Y-123028000D01*
X83978000Y-121828000D02*
X84678000Y-121828000D01*
X83912000Y-118776000D02*
X83912000Y-119476000D01*
X82712000Y-119476000D02*
X82712000Y-118776000D01*
X77882000Y-110652000D02*
X78582000Y-110652000D01*
X78582000Y-111852000D02*
X77882000Y-111852000D01*
X85486240Y-146841160D02*
X85486240Y-146792900D01*
X84785200Y-144042180D02*
X85486240Y-144042180D01*
X85486240Y-144042180D02*
X85486240Y-144291100D01*
X85486240Y-146841160D02*
X85486240Y-147041820D01*
X85486240Y-147041820D02*
X84785200Y-147041820D01*
X106396840Y-126888240D02*
X106445100Y-126888240D01*
X109195820Y-126187200D02*
X109195820Y-126888240D01*
X109195820Y-126888240D02*
X108946900Y-126888240D01*
X106396840Y-126888240D02*
X106196180Y-126888240D01*
X106196180Y-126888240D02*
X106196180Y-126187200D01*
X88231900Y-133306820D02*
X88231900Y-134358380D01*
X89832100Y-134409180D02*
X89832100Y-133357620D01*
X93667580Y-137706100D02*
X94719140Y-137706100D01*
X94769940Y-136105900D02*
X93718380Y-136105900D01*
X97703000Y-146058000D02*
X97703000Y-147058000D01*
X96353000Y-147058000D02*
X96353000Y-146058000D01*
X102529000Y-146058000D02*
X102529000Y-147058000D01*
X101179000Y-147058000D02*
X101179000Y-146058000D01*
X107863000Y-146058000D02*
X107863000Y-147058000D01*
X106513000Y-147058000D02*
X106513000Y-146058000D01*
X113197000Y-146058000D02*
X113197000Y-147058000D01*
X111847000Y-147058000D02*
X111847000Y-146058000D01*
X87717000Y-147058000D02*
X87717000Y-146058000D01*
X89067000Y-146058000D02*
X89067000Y-147058000D01*
X82463000Y-147074000D02*
X82463000Y-148074000D01*
X81113000Y-148074000D02*
X81113000Y-147074000D01*
X82463000Y-143010000D02*
X82463000Y-144010000D01*
X81113000Y-144010000D02*
X81113000Y-143010000D01*
X85643000Y-127528000D02*
X85643000Y-128528000D01*
X84293000Y-128528000D02*
X84293000Y-127528000D01*
X96311000Y-127262000D02*
X96311000Y-128262000D01*
X94961000Y-128262000D02*
X94961000Y-127262000D01*
X104132000Y-135549000D02*
X103132000Y-135549000D01*
X103132000Y-134199000D02*
X104132000Y-134199000D01*
X117340000Y-139105000D02*
X116340000Y-139105000D01*
X116340000Y-137755000D02*
X117340000Y-137755000D01*
X111752000Y-126151000D02*
X110752000Y-126151000D01*
X110752000Y-124801000D02*
X111752000Y-124801000D01*
X103545000Y-121928000D02*
X103545000Y-122928000D01*
X102195000Y-122928000D02*
X102195000Y-121928000D01*
X106942000Y-128103000D02*
X107942000Y-128103000D01*
X107942000Y-129453000D02*
X106942000Y-129453000D01*
X84669000Y-119130000D02*
X84669000Y-118130000D01*
X86019000Y-118130000D02*
X86019000Y-119130000D01*
X76287000Y-119118000D02*
X76287000Y-118118000D01*
X77637000Y-118118000D02*
X77637000Y-119118000D01*
X85844000Y-143169000D02*
X84844000Y-143169000D01*
X84844000Y-141819000D02*
X85844000Y-141819000D01*
X85817000Y-132918000D02*
X85817000Y-131918000D01*
X87167000Y-131918000D02*
X87167000Y-132918000D01*
X91913000Y-132326000D02*
X91913000Y-131326000D01*
X93263000Y-131326000D02*
X93263000Y-132326000D01*
X103799000Y-131326000D02*
X103799000Y-132326000D01*
X102449000Y-132326000D02*
X102449000Y-131326000D01*
X99909000Y-132326000D02*
X99909000Y-131326000D01*
X101259000Y-131326000D02*
X101259000Y-132326000D01*
X102116000Y-136231000D02*
X103116000Y-136231000D01*
X103116000Y-137581000D02*
X102116000Y-137581000D01*
X102116000Y-138771000D02*
X103116000Y-138771000D01*
X103116000Y-140121000D02*
X102116000Y-140121000D01*
X115229000Y-123706000D02*
X115229000Y-124706000D01*
X113879000Y-124706000D02*
X113879000Y-123706000D01*
X86098000Y-116499000D02*
X85098000Y-116499000D01*
X85098000Y-115149000D02*
X86098000Y-115149000D01*
X78732000Y-116245000D02*
X77732000Y-116245000D01*
X77732000Y-114895000D02*
X78732000Y-114895000D01*
X78732000Y-113959000D02*
X77732000Y-113959000D01*
X77732000Y-112609000D02*
X78732000Y-112609000D01*
X94453000Y-132326000D02*
X94453000Y-131326000D01*
X95803000Y-131326000D02*
X95803000Y-132326000D01*
X81104000Y-126712000D02*
X81304000Y-126312000D01*
X81304000Y-126312000D02*
X81504000Y-126712000D01*
X82704000Y-128812000D02*
X81304000Y-128812000D01*
X81304000Y-128812000D02*
X81104000Y-128812000D01*
X82704000Y-126712000D02*
X81104000Y-126712000D01*
X92280000Y-126204000D02*
X92480000Y-125804000D01*
X92480000Y-125804000D02*
X92680000Y-126204000D01*
X93880000Y-128304000D02*
X92480000Y-128304000D01*
X92480000Y-128304000D02*
X92280000Y-128304000D01*
X93880000Y-126204000D02*
X92280000Y-126204000D01*
X89076000Y-119668000D02*
X88876000Y-120068000D01*
X88876000Y-120068000D02*
X88676000Y-119668000D01*
X87476000Y-117568000D02*
X88876000Y-117568000D01*
X88876000Y-117568000D02*
X89076000Y-117568000D01*
X87476000Y-119668000D02*
X89076000Y-119668000D01*
X80572000Y-119668000D02*
X80372000Y-120068000D01*
X80372000Y-120068000D02*
X80172000Y-119668000D01*
X78972000Y-117568000D02*
X80372000Y-117568000D01*
X80372000Y-117568000D02*
X80572000Y-117568000D01*
X78972000Y-119668000D02*
X80572000Y-119668000D01*
X79932000Y-150606000D02*
X78832000Y-150606000D01*
X79932000Y-150106000D02*
X79932000Y-150606000D01*
X76532000Y-148606000D02*
X77632000Y-148606000D01*
X76532000Y-149106000D02*
X76532000Y-148606000D01*
X76532000Y-150606000D02*
X77632000Y-150606000D01*
X76532000Y-150606000D02*
X76532000Y-150106000D01*
X79932000Y-148606000D02*
X78832000Y-148606000D01*
X79932000Y-148606000D02*
X79932000Y-149106000D01*
X104726000Y-118634000D02*
X105826000Y-118634000D01*
X104726000Y-119134000D02*
X104726000Y-118634000D01*
X108126000Y-120634000D02*
X107026000Y-120634000D01*
X108126000Y-120134000D02*
X108126000Y-120634000D01*
X108126000Y-118634000D02*
X107026000Y-118634000D01*
X108126000Y-118634000D02*
X108126000Y-119134000D01*
X104726000Y-120634000D02*
X105826000Y-120634000D01*
X104726000Y-120634000D02*
X104726000Y-120134000D01*
X81296000Y-114222000D02*
X81296000Y-113122000D01*
X81796000Y-114222000D02*
X81296000Y-114222000D01*
X83296000Y-110822000D02*
X83296000Y-111922000D01*
X82796000Y-110822000D02*
X83296000Y-110822000D01*
X81296000Y-110822000D02*
X81296000Y-111922000D01*
X81296000Y-110822000D02*
X81796000Y-110822000D01*
X83296000Y-114222000D02*
X83296000Y-113122000D01*
X83296000Y-114222000D02*
X82796000Y-114222000D01*
X98532000Y-120817000D02*
X97532000Y-120817000D01*
X97532000Y-119467000D02*
X98532000Y-119467000D01*
X94988000Y-120817000D02*
X93988000Y-120817000D01*
X93988000Y-119467000D02*
X94988000Y-119467000D01*
X115840000Y-129545000D02*
X117840000Y-129545000D01*
X115840000Y-133345000D02*
X115840000Y-129545000D01*
X117840000Y-133345000D02*
X115840000Y-133345000D01*
X117840000Y-129545000D02*
X117840000Y-133345000D01*
X124968000Y-129095500D02*
X119634000Y-129095500D01*
X119634000Y-129095500D02*
X119634000Y-140779500D01*
X119634000Y-140779500D02*
X124968000Y-140779500D01*
X124968000Y-115570000D02*
X119634000Y-115570000D01*
X119634000Y-115570000D02*
X119634000Y-127254000D01*
X119634000Y-127254000D02*
X124968000Y-127254000D01*
X106426000Y-104394000D02*
X103886000Y-104394000D01*
X109246000Y-104674000D02*
X107696000Y-104674000D01*
X106426000Y-104394000D02*
X106426000Y-101854000D01*
X107696000Y-101574000D02*
X109246000Y-101574000D01*
X109246000Y-101574000D02*
X109246000Y-104674000D01*
X106426000Y-101854000D02*
X103886000Y-101854000D01*
X103886000Y-101854000D02*
X103886000Y-104394000D01*
X122174000Y-104394000D02*
X119634000Y-104394000D01*
X124994000Y-104674000D02*
X123444000Y-104674000D01*
X122174000Y-104394000D02*
X122174000Y-101854000D01*
X123444000Y-101574000D02*
X124994000Y-101574000D01*
X124994000Y-101574000D02*
X124994000Y-104674000D01*
X122174000Y-101854000D02*
X119634000Y-101854000D01*
X119634000Y-101854000D02*
X119634000Y-104394000D01*
X74168000Y-104394000D02*
X74422000Y-103886000D01*
X74422000Y-104902000D02*
X74168000Y-104394000D01*
X82042000Y-104902000D02*
X82042000Y-101600000D01*
X79502000Y-104902000D02*
X79502000Y-101600000D01*
X76962000Y-104902000D02*
X76962000Y-101600000D01*
X84582000Y-104902000D02*
X84582000Y-101600000D01*
X74422000Y-104902000D02*
X84582000Y-104902000D01*
X74422000Y-101600000D02*
X74422000Y-104902000D01*
M02*
