G04 #@! TF.FileFunction,Copper,L1,Top,Signal*
%FSLAX46Y46*%
G04 Gerber Fmt 4.6, Leading zero omitted, Abs format (unit mm)*
G04 Created by KiCad (PCBNEW (2015-03-31 BZR 5561)-product) date Tue 28 Apr 2015 10:13:20 PM CDT*
%MOMM*%
G01*
G04 APERTURE LIST*
%ADD10C,0.100000*%
%ADD11C,1.651000*%
%ADD12R,1.651000X1.651000*%
%ADD13R,1.200000X0.750000*%
%ADD14R,0.750000X1.200000*%
%ADD15R,0.800100X0.800100*%
%ADD16R,1.198880X2.598420*%
%ADD17R,1.198880X2.600960*%
%ADD18R,2.598420X1.198880*%
%ADD19R,2.600960X1.198880*%
%ADD20R,0.900000X0.500000*%
%ADD21R,0.500000X0.900000*%
%ADD22R,1.200000X0.900000*%
%ADD23R,0.900000X1.200000*%
%ADD24R,0.800000X0.400000*%
%ADD25R,0.600000X2.600000*%
%ADD26R,1.000000X0.500000*%
%ADD27R,2.600000X0.600000*%
%ADD28R,0.500000X1.000000*%
%ADD29R,1.524000X1.016000*%
%ADD30R,1.524000X0.965200*%
%ADD31R,5.080000X2.413000*%
%ADD32R,5.080000X2.286000*%
%ADD33R,2.032000X2.032000*%
%ADD34O,2.032000X2.032000*%
%ADD35R,1.905000X3.048000*%
%ADD36C,0.635000*%
%ADD37C,0.355600*%
%ADD38C,0.177800*%
%ADD39C,0.254000*%
G04 APERTURE END LIST*
D10*
D11*
X107696000Y-134366000D03*
X110236000Y-131826000D03*
D12*
X112776000Y-134366000D03*
D13*
X94930000Y-149606000D03*
X93030000Y-149606000D03*
D14*
X94996000Y-147508000D03*
X94996000Y-145608000D03*
D13*
X98994000Y-149606000D03*
X97094000Y-149606000D03*
D14*
X99822000Y-147508000D03*
X99822000Y-145608000D03*
D13*
X103058000Y-149606000D03*
X101158000Y-149606000D03*
X107122000Y-149606000D03*
X105222000Y-149606000D03*
D14*
X109220000Y-147508000D03*
X109220000Y-145608000D03*
D13*
X111186000Y-149606000D03*
X109286000Y-149606000D03*
D14*
X114554000Y-147508000D03*
X114554000Y-145608000D03*
D13*
X115250000Y-149606000D03*
X113350000Y-149606000D03*
D14*
X81534000Y-137226000D03*
X81534000Y-139126000D03*
X78364000Y-130744000D03*
X78364000Y-128844000D03*
X78232000Y-146238000D03*
X78232000Y-144338000D03*
D13*
X84328000Y-140462000D03*
X86228000Y-140462000D03*
X84394000Y-148590000D03*
X86294000Y-148590000D03*
X83886000Y-130810000D03*
X81986000Y-130810000D03*
X83886000Y-132842000D03*
X81986000Y-132842000D03*
X88966000Y-127254000D03*
X87066000Y-127254000D03*
D14*
X97668000Y-130876000D03*
X97668000Y-132776000D03*
D13*
X86802000Y-136398000D03*
X84902000Y-136398000D03*
X99634000Y-127254000D03*
X97734000Y-127254000D03*
X101666000Y-141478000D03*
X103566000Y-141478000D03*
X96962000Y-139446000D03*
X95062000Y-139446000D03*
X111186000Y-140970000D03*
X109286000Y-140970000D03*
X96962000Y-141478000D03*
X95062000Y-141478000D03*
X116774000Y-143256000D03*
X114874000Y-143256000D03*
X114874000Y-141224000D03*
X116774000Y-141224000D03*
D14*
X118364000Y-143256000D03*
X118364000Y-141356000D03*
X104902000Y-128712000D03*
X104902000Y-126812000D03*
D13*
X111948000Y-122936000D03*
X110048000Y-122936000D03*
D14*
X100330000Y-123256000D03*
X100330000Y-125156000D03*
D13*
X96332000Y-123190000D03*
X98232000Y-123190000D03*
X92014000Y-123190000D03*
X93914000Y-123190000D03*
X105730000Y-123190000D03*
X107630000Y-123190000D03*
D14*
X91694000Y-118176000D03*
X91694000Y-120076000D03*
D13*
X114742000Y-128778000D03*
X112842000Y-128778000D03*
D14*
X85090000Y-111948000D03*
X85090000Y-110048000D03*
D13*
X93660000Y-115824000D03*
X91760000Y-115824000D03*
X86868000Y-113792000D03*
X88768000Y-113792000D03*
X85278000Y-122428000D03*
X83378000Y-122428000D03*
D14*
X83312000Y-118176000D03*
X83312000Y-120076000D03*
D13*
X77282000Y-111252000D03*
X79182000Y-111252000D03*
D15*
X83835240Y-144592000D03*
X83835240Y-146492000D03*
X85834220Y-145542000D03*
X108646000Y-125237240D03*
X106746000Y-125237240D03*
X107696000Y-127236220D03*
D16*
X89032000Y-131556760D03*
D17*
X89032000Y-136159240D03*
D18*
X91917520Y-136906000D03*
D19*
X96520000Y-136906000D03*
D20*
X97028000Y-147308000D03*
X97028000Y-145808000D03*
X101854000Y-147308000D03*
X101854000Y-145808000D03*
X107188000Y-147308000D03*
X107188000Y-145808000D03*
X112522000Y-147308000D03*
X112522000Y-145808000D03*
X88392000Y-145808000D03*
X88392000Y-147308000D03*
X81788000Y-148324000D03*
X81788000Y-146824000D03*
X81788000Y-144260000D03*
X81788000Y-142760000D03*
X84968000Y-128778000D03*
X84968000Y-127278000D03*
X95636000Y-128512000D03*
X95636000Y-127012000D03*
D21*
X102882000Y-134874000D03*
X104382000Y-134874000D03*
X116090000Y-138430000D03*
X117590000Y-138430000D03*
X110502000Y-125476000D03*
X112002000Y-125476000D03*
D20*
X102870000Y-123178000D03*
X102870000Y-121678000D03*
D21*
X108192000Y-128778000D03*
X106692000Y-128778000D03*
D20*
X85344000Y-117880000D03*
X85344000Y-119380000D03*
X76962000Y-117868000D03*
X76962000Y-119368000D03*
D22*
X84244000Y-142494000D03*
X86444000Y-142494000D03*
D23*
X86492000Y-131318000D03*
X86492000Y-133518000D03*
X92588000Y-130726000D03*
X92588000Y-132926000D03*
X103124000Y-132926000D03*
X103124000Y-130726000D03*
X100584000Y-130726000D03*
X100584000Y-132926000D03*
D22*
X103716000Y-136906000D03*
X101516000Y-136906000D03*
X103716000Y-139446000D03*
X101516000Y-139446000D03*
D23*
X114554000Y-125306000D03*
X114554000Y-123106000D03*
D22*
X84498000Y-115824000D03*
X86698000Y-115824000D03*
X77132000Y-115570000D03*
X79332000Y-115570000D03*
X77132000Y-113284000D03*
X79332000Y-113284000D03*
D23*
X95128000Y-130726000D03*
X95128000Y-132926000D03*
D24*
X80904000Y-127112000D03*
X80904000Y-127762000D03*
X80904000Y-128412000D03*
X82804000Y-127112000D03*
X82804000Y-127762000D03*
X82804000Y-128412000D03*
X92080000Y-126604000D03*
X92080000Y-127254000D03*
X92080000Y-127904000D03*
X93980000Y-126604000D03*
X93980000Y-127254000D03*
X93980000Y-127904000D03*
X89276000Y-119268000D03*
X89276000Y-118618000D03*
X89276000Y-117968000D03*
X87376000Y-119268000D03*
X87376000Y-118618000D03*
X87376000Y-117968000D03*
X80772000Y-119268000D03*
X80772000Y-118618000D03*
X80772000Y-117968000D03*
X78872000Y-119268000D03*
X78872000Y-118618000D03*
X78872000Y-117968000D03*
D25*
X78232000Y-149606000D03*
D26*
X79832000Y-149606000D03*
X76632000Y-149606000D03*
D25*
X106426000Y-119634000D03*
D26*
X104826000Y-119634000D03*
X108026000Y-119634000D03*
D27*
X82296000Y-112522000D03*
D28*
X82296000Y-114122000D03*
X82296000Y-110922000D03*
D21*
X97282000Y-120142000D03*
X98782000Y-120142000D03*
X93738000Y-120142000D03*
X95238000Y-120142000D03*
D29*
X116840000Y-131445000D03*
D30*
X116840000Y-132588000D03*
X116840000Y-130302000D03*
D31*
X122428000Y-139319000D03*
X122428000Y-130556000D03*
D32*
X122428000Y-134937500D03*
D31*
X122428000Y-125793500D03*
X122428000Y-117030500D03*
D32*
X122428000Y-121412000D03*
D33*
X107696000Y-103124000D03*
D34*
X105156000Y-103124000D03*
D33*
X123444000Y-103124000D03*
D34*
X120904000Y-103124000D03*
D35*
X75692000Y-103124000D03*
X78232000Y-103124000D03*
X80772000Y-103124000D03*
X83312000Y-103124000D03*
D36*
X119380000Y-140081000D03*
X119380000Y-139573000D03*
X119380000Y-139065000D03*
X119380000Y-138557000D03*
X119380000Y-138049000D03*
X119253000Y-127000000D03*
X119253000Y-126492000D03*
X119253000Y-125984000D03*
X119253000Y-125476000D03*
X119253000Y-124968000D03*
X119507000Y-118110000D03*
X119507000Y-117602000D03*
X119507000Y-117094000D03*
X119507000Y-116586000D03*
X119507000Y-116078000D03*
X85344000Y-103124000D03*
X87615855Y-106665855D03*
X90424000Y-106934000D03*
X85598000Y-143764000D03*
X81534000Y-115570000D03*
X93472000Y-124968000D03*
X88392000Y-109728000D03*
X122174000Y-106934000D03*
X116078000Y-111506000D03*
X122174000Y-105918000D03*
X121158000Y-106934000D03*
X121158000Y-105918000D03*
X116332000Y-107950000D03*
X117016881Y-106757119D03*
X113792000Y-114300000D03*
X113792000Y-113284000D03*
X116078000Y-110236000D03*
X116078000Y-108966000D03*
X106426000Y-117856000D03*
X108458000Y-124206000D03*
X106426000Y-127508000D03*
X88646000Y-115570000D03*
X83820000Y-110236000D03*
X80518000Y-110490000D03*
X78232000Y-151638000D03*
X98806000Y-133350000D03*
X98806000Y-118872000D03*
X96012000Y-118872000D03*
X99314000Y-125476000D03*
X105156000Y-141478000D03*
X105156000Y-139446000D03*
X94996000Y-138430000D03*
X94996000Y-142494000D03*
X87630000Y-148844000D03*
X88392000Y-148082000D03*
X82550000Y-139192000D03*
X87376000Y-140462000D03*
X80772000Y-130810000D03*
X84836000Y-135382000D03*
X82296000Y-134112000D03*
X92964000Y-127508000D03*
X91186000Y-127000000D03*
X81824702Y-128270000D03*
X80010000Y-127000000D03*
X80010000Y-127762000D03*
X88392000Y-119126000D03*
X89408000Y-120142000D03*
X86868000Y-122428000D03*
X78232000Y-117348000D03*
X81788000Y-119380000D03*
X112522000Y-144780000D03*
X107188000Y-144526000D03*
X99822000Y-144018000D03*
X101600000Y-108712000D03*
X94867479Y-144387118D03*
X119380000Y-130556000D03*
X119380000Y-131064000D03*
X119380000Y-130048000D03*
X119380000Y-129540000D03*
X119380000Y-131572000D03*
X89916000Y-113792000D03*
X93980000Y-114554000D03*
X118872000Y-144399000D03*
X116332000Y-148971000D03*
X112776000Y-120396000D03*
X115316000Y-122174000D03*
X96951000Y-134289000D03*
X76708000Y-150622000D03*
X97028000Y-114173000D03*
X99951868Y-104648000D03*
X98806000Y-117094000D03*
X83479678Y-108318280D03*
X82804000Y-106680000D03*
X101092000Y-118173490D03*
X95274993Y-116972765D03*
X96266000Y-143510000D03*
X98552000Y-141478000D03*
X115062000Y-118872000D03*
X83820000Y-105664000D03*
X97396280Y-117043180D03*
X89045368Y-106816922D03*
X81280000Y-108458000D03*
X100838000Y-116586000D03*
X76200000Y-109982000D03*
X75692000Y-108458000D03*
D37*
X116774000Y-143256000D02*
X118364000Y-143256000D01*
X106426000Y-119634000D02*
X106426000Y-117856000D01*
X106426000Y-119634000D02*
X106426000Y-122211000D01*
X106426000Y-122211000D02*
X107405000Y-123190000D01*
X107405000Y-123190000D02*
X107630000Y-123190000D01*
X107630000Y-123190000D02*
X107630000Y-123378000D01*
X107630000Y-123378000D02*
X108458000Y-124206000D01*
X107630000Y-123190000D02*
X109794000Y-123190000D01*
X109794000Y-123190000D02*
X110048000Y-122936000D01*
X106692000Y-128778000D02*
X106692000Y-127774000D01*
X106692000Y-127774000D02*
X106426000Y-127508000D01*
X88768000Y-113792000D02*
X88768000Y-115448000D01*
X88768000Y-115448000D02*
X88646000Y-115570000D01*
X85090000Y-110048000D02*
X84008000Y-110048000D01*
X84008000Y-110048000D02*
X83820000Y-110236000D01*
X79182000Y-111252000D02*
X79756000Y-111252000D01*
X79756000Y-111252000D02*
X80518000Y-110490000D01*
X85090000Y-110048000D02*
X85820600Y-110048000D01*
X85820600Y-110048000D02*
X88768000Y-112995400D01*
X88768000Y-112995400D02*
X88768000Y-113061400D01*
X88768000Y-113061400D02*
X88768000Y-113792000D01*
X83820000Y-111998000D02*
X83820000Y-111543000D01*
X83820000Y-111543000D02*
X85090000Y-110273000D01*
X85090000Y-110273000D02*
X85090000Y-110048000D01*
X82296000Y-112522000D02*
X83296000Y-112522000D01*
X83296000Y-112522000D02*
X83820000Y-111998000D01*
X79182000Y-111252000D02*
X81026000Y-111252000D01*
X81026000Y-111252000D02*
X82296000Y-112522000D01*
X78232000Y-149606000D02*
X78232000Y-151638000D01*
X100584000Y-132926000D02*
X99230000Y-132926000D01*
X99230000Y-132926000D02*
X98806000Y-133350000D01*
X97668000Y-132776000D02*
X98232000Y-132776000D01*
X98232000Y-132776000D02*
X98806000Y-133350000D01*
X98782000Y-120142000D02*
X98782000Y-118896000D01*
X98782000Y-118896000D02*
X98806000Y-118872000D01*
X95238000Y-120142000D02*
X95238000Y-119646000D01*
X95238000Y-119646000D02*
X96012000Y-118872000D01*
X100330000Y-125156000D02*
X99634000Y-125156000D01*
X99634000Y-125156000D02*
X99314000Y-125476000D01*
X103566000Y-141478000D02*
X105156000Y-141478000D01*
X103716000Y-139446000D02*
X105156000Y-139446000D01*
X103716000Y-139446000D02*
X103716000Y-141328000D01*
X103716000Y-141328000D02*
X103566000Y-141478000D01*
X95062000Y-139446000D02*
X95062000Y-138496000D01*
X95062000Y-138496000D02*
X94996000Y-138430000D01*
X95062000Y-141478000D02*
X95062000Y-142428000D01*
X95062000Y-142428000D02*
X94996000Y-142494000D01*
X95062000Y-139446000D02*
X95062000Y-141478000D01*
X86294000Y-148590000D02*
X87376000Y-148590000D01*
X87376000Y-148590000D02*
X87630000Y-148844000D01*
X88392000Y-147308000D02*
X88392000Y-148082000D01*
X86294000Y-148590000D02*
X87110000Y-148590000D01*
X87110000Y-148590000D02*
X88392000Y-147308000D01*
X81534000Y-139126000D02*
X82484000Y-139126000D01*
X82484000Y-139126000D02*
X82550000Y-139192000D01*
X86228000Y-140462000D02*
X87376000Y-140462000D01*
X81986000Y-130810000D02*
X80772000Y-130810000D01*
X84902000Y-136398000D02*
X84902000Y-135448000D01*
X84902000Y-135448000D02*
X84836000Y-135382000D01*
X81986000Y-132842000D02*
X81986000Y-133802000D01*
X81986000Y-133802000D02*
X82296000Y-134112000D01*
X93013229Y-127254000D02*
X93980000Y-127254000D01*
X92080000Y-127254000D02*
X93013229Y-127254000D01*
X93013229Y-127254000D02*
X93013229Y-127458771D01*
X93013229Y-127458771D02*
X92964000Y-127508000D01*
X92080000Y-126604000D02*
X91582000Y-126604000D01*
X91582000Y-126604000D02*
X91186000Y-127000000D01*
X92080000Y-127254000D02*
X91440000Y-127254000D01*
X91440000Y-127254000D02*
X91186000Y-127000000D01*
X81830864Y-127762000D02*
X82804000Y-127762000D01*
X80904000Y-127762000D02*
X81830864Y-127762000D01*
X81830864Y-128263838D02*
X81824702Y-128270000D01*
X81830864Y-127762000D02*
X81830864Y-128263838D01*
X80904000Y-127112000D02*
X80122000Y-127112000D01*
X80122000Y-127112000D02*
X80010000Y-127000000D01*
X80904000Y-127762000D02*
X80010000Y-127762000D01*
X88356536Y-118618000D02*
X89276000Y-118618000D01*
X87376000Y-118618000D02*
X88356536Y-118618000D01*
X88356536Y-118618000D02*
X88356536Y-119090536D01*
X88356536Y-119090536D02*
X88392000Y-119126000D01*
X89276000Y-119268000D02*
X89276000Y-120010000D01*
X89276000Y-120010000D02*
X89408000Y-120142000D01*
X85278000Y-122428000D02*
X86868000Y-122428000D01*
X78872000Y-117968000D02*
X78852000Y-117968000D01*
X78852000Y-117968000D02*
X78232000Y-117348000D01*
X80772000Y-119268000D02*
X81676000Y-119268000D01*
X81676000Y-119268000D02*
X81788000Y-119380000D01*
X78872000Y-118618000D02*
X80772000Y-118618000D01*
X80772000Y-118618000D02*
X80772000Y-119268000D01*
X78872000Y-117968000D02*
X78872000Y-118618000D01*
X89276000Y-118618000D02*
X89276000Y-119268000D01*
X93980000Y-127904000D02*
X93980000Y-127254000D01*
X92080000Y-126604000D02*
X92080000Y-127254000D01*
X81986000Y-130810000D02*
X81986000Y-132842000D01*
X80904000Y-127112000D02*
X80904000Y-127762000D01*
X112522000Y-145808000D02*
X112522000Y-144780000D01*
X107188000Y-145202400D02*
X107188000Y-144526000D01*
X107188000Y-145808000D02*
X107188000Y-145202400D01*
X99822000Y-145608000D02*
X99822000Y-144018000D01*
X97028000Y-145808000D02*
X95196000Y-145808000D01*
X95196000Y-145808000D02*
X94996000Y-145608000D01*
X101854000Y-145808000D02*
X100022000Y-145808000D01*
X100022000Y-145808000D02*
X99822000Y-145608000D01*
X109220000Y-145608000D02*
X107388000Y-145608000D01*
X107388000Y-145608000D02*
X107188000Y-145808000D01*
X114554000Y-145608000D02*
X112722000Y-145608000D01*
X112722000Y-145608000D02*
X112522000Y-145808000D01*
X94996000Y-145608000D02*
X94996000Y-144515639D01*
X94996000Y-144515639D02*
X94867479Y-144387118D01*
X122428000Y-130556000D02*
X119380000Y-130556000D01*
X119380000Y-130556000D02*
X119380000Y-130048000D01*
X119380000Y-131064000D02*
X119380000Y-131572000D01*
X89916000Y-113792000D02*
X88392000Y-112268000D01*
X93660000Y-115824000D02*
X93660000Y-114874000D01*
X93660000Y-114874000D02*
X93980000Y-114554000D01*
X118364000Y-143891000D02*
X118872000Y-144399000D01*
X118364000Y-143256000D02*
X118364000Y-143891000D01*
X97028000Y-147308000D02*
X97028000Y-149540000D01*
X97028000Y-149540000D02*
X97094000Y-149606000D01*
X94930000Y-149606000D02*
X94930000Y-147574000D01*
X94930000Y-147574000D02*
X94996000Y-147508000D01*
X97094000Y-149606000D02*
X94930000Y-149606000D01*
X85834220Y-145542000D02*
X88126000Y-145542000D01*
X88126000Y-145542000D02*
X88392000Y-145808000D01*
X93030000Y-149606000D02*
X93030000Y-148875400D01*
X93030000Y-148875400D02*
X89962600Y-145808000D01*
X89962600Y-145808000D02*
X89197600Y-145808000D01*
X89197600Y-145808000D02*
X88392000Y-145808000D01*
X101158000Y-148778000D02*
X101854000Y-148082000D01*
X101854000Y-148082000D02*
X101854000Y-147308000D01*
X101158000Y-149606000D02*
X101158000Y-148778000D01*
X101158000Y-149606000D02*
X98994000Y-149606000D01*
X99822000Y-147508000D02*
X99822000Y-148778000D01*
X99822000Y-148778000D02*
X98994000Y-149606000D01*
X105222000Y-149606000D02*
X103058000Y-149606000D01*
X109220000Y-147508000D02*
X109220000Y-149540000D01*
X109220000Y-149540000D02*
X109286000Y-149606000D01*
X107188000Y-147308000D02*
X107188000Y-149540000D01*
X107188000Y-149540000D02*
X107122000Y-149606000D01*
X109286000Y-149606000D02*
X107122000Y-149606000D01*
X113350000Y-149606000D02*
X113350000Y-148712000D01*
X113350000Y-148712000D02*
X114554000Y-147508000D01*
X112522000Y-147308000D02*
X112522000Y-148270000D01*
X112522000Y-148270000D02*
X111186000Y-149606000D01*
X113350000Y-149606000D02*
X111186000Y-149606000D01*
X115697000Y-149606000D02*
X116332000Y-148971000D01*
X115250000Y-149606000D02*
X115697000Y-149606000D01*
X81534000Y-137226000D02*
X81534000Y-136270400D01*
X81534000Y-136270400D02*
X78364000Y-133100400D01*
X78364000Y-133100400D02*
X78364000Y-130744000D01*
X80010000Y-137922000D02*
X80706000Y-137226000D01*
X80706000Y-137226000D02*
X81534000Y-137226000D01*
X80010000Y-143764000D02*
X80010000Y-137922000D01*
X80506000Y-144260000D02*
X80010000Y-143764000D01*
X81788000Y-144260000D02*
X80506000Y-144260000D01*
X81788000Y-144260000D02*
X83503240Y-144260000D01*
X83503240Y-144260000D02*
X83835240Y-144592000D01*
X78364000Y-128844000D02*
X80472000Y-128844000D01*
X80472000Y-128844000D02*
X80904000Y-128412000D01*
X78232000Y-146238000D02*
X81202000Y-146238000D01*
X81202000Y-146238000D02*
X81788000Y-146824000D01*
X83835240Y-146492000D02*
X82120000Y-146492000D01*
X82120000Y-146492000D02*
X81788000Y-146824000D01*
X75438000Y-140462000D02*
X78232000Y-143256000D01*
X78232000Y-143256000D02*
X78232000Y-144338000D01*
X75438000Y-121497600D02*
X75438000Y-140462000D01*
X76962000Y-119368000D02*
X76962000Y-119973600D01*
X76962000Y-119973600D02*
X75438000Y-121497600D01*
X76962000Y-119368000D02*
X78772000Y-119368000D01*
X78772000Y-119368000D02*
X78872000Y-119268000D01*
X84328000Y-140462000D02*
X84328000Y-142410000D01*
X84328000Y-142410000D02*
X84244000Y-142494000D01*
X81788000Y-142760000D02*
X83978000Y-142760000D01*
X83978000Y-142760000D02*
X84244000Y-142494000D01*
X79832000Y-149606000D02*
X80506000Y-149606000D01*
X80506000Y-149606000D02*
X81788000Y-148324000D01*
X81788000Y-148324000D02*
X84128000Y-148324000D01*
X84128000Y-148324000D02*
X84394000Y-148590000D01*
X83886000Y-130810000D02*
X83886000Y-129860000D01*
X83886000Y-129860000D02*
X84968000Y-128778000D01*
X85598000Y-133604000D02*
X85684000Y-133518000D01*
X85684000Y-133518000D02*
X86492000Y-133518000D01*
X84873000Y-133604000D02*
X85598000Y-133604000D01*
X83886000Y-132842000D02*
X84111000Y-132842000D01*
X84111000Y-132842000D02*
X84873000Y-133604000D01*
X83886000Y-130810000D02*
X83886000Y-132842000D01*
X83925600Y-128778000D02*
X84968000Y-128778000D01*
X82804000Y-128412000D02*
X83559600Y-128412000D01*
X83559600Y-128412000D02*
X83925600Y-128778000D01*
X90170000Y-127254000D02*
X90820000Y-127904000D01*
X90820000Y-127904000D02*
X92080000Y-127904000D01*
X88966000Y-127254000D02*
X90170000Y-127254000D01*
X84968000Y-127278000D02*
X87042000Y-127278000D01*
X87042000Y-127278000D02*
X87066000Y-127254000D01*
X82804000Y-127112000D02*
X84802000Y-127112000D01*
X84802000Y-127112000D02*
X84968000Y-127278000D01*
X95128000Y-130726000D02*
X95128000Y-129020000D01*
X95128000Y-129020000D02*
X95636000Y-128512000D01*
X97668000Y-130876000D02*
X95278000Y-130876000D01*
X95278000Y-130876000D02*
X95128000Y-130726000D01*
X92588000Y-130726000D02*
X95128000Y-130726000D01*
X114554000Y-123106000D02*
X114554000Y-123256000D01*
X114554000Y-123256000D02*
X116840000Y-125542000D01*
X113792000Y-121388400D02*
X113768400Y-121388400D01*
X113768400Y-121388400D02*
X112776000Y-120396000D01*
X114554000Y-123106000D02*
X114554000Y-122150400D01*
X114554000Y-122150400D02*
X113792000Y-121388400D01*
X86802000Y-136398000D02*
X91409520Y-136398000D01*
X91409520Y-136398000D02*
X91917520Y-136906000D01*
X86802000Y-136398000D02*
X88793240Y-136398000D01*
X88793240Y-136398000D02*
X89032000Y-136159240D01*
X89032000Y-140861600D02*
X89032000Y-136159240D01*
X87399600Y-142494000D02*
X89032000Y-140861600D01*
X86444000Y-142494000D02*
X87399600Y-142494000D01*
X114554000Y-122936000D02*
X115316000Y-122174000D01*
X114554000Y-123106000D02*
X114554000Y-122936000D01*
X96951000Y-134289000D02*
X96112000Y-135128000D01*
X95350330Y-135128000D02*
X93572330Y-136906000D01*
X93572330Y-136906000D02*
X91917520Y-136906000D01*
X96112000Y-135128000D02*
X95350330Y-135128000D01*
X109068567Y-131826000D02*
X110236000Y-131826000D01*
X106272118Y-131826000D02*
X109068567Y-131826000D01*
X105662508Y-132435610D02*
X106272118Y-131826000D01*
X105157492Y-132435610D02*
X105662508Y-132435610D01*
X103447882Y-130726000D02*
X105157492Y-132435610D01*
X100584000Y-130726000D02*
X103447882Y-130726000D01*
X100584000Y-130726000D02*
X103124000Y-130726000D01*
X99634000Y-128590000D02*
X100584000Y-129540000D01*
X100584000Y-129540000D02*
X100584000Y-130726000D01*
X99634000Y-127254000D02*
X99634000Y-128590000D01*
X95636000Y-127012000D02*
X97492000Y-127012000D01*
X97492000Y-127012000D02*
X97734000Y-127254000D01*
X93980000Y-126604000D02*
X95228000Y-126604000D01*
X95228000Y-126604000D02*
X95636000Y-127012000D01*
X101666000Y-141478000D02*
X101666000Y-139596000D01*
X101666000Y-139596000D02*
X101516000Y-139446000D01*
X101516000Y-136906000D02*
X101516000Y-139446000D01*
X96520000Y-135890000D02*
X97536000Y-134874000D01*
X97536000Y-134874000D02*
X102882000Y-134874000D01*
X96520000Y-136906000D02*
X96520000Y-135890000D01*
X96962000Y-141478000D02*
X96962000Y-137348000D01*
X96962000Y-137348000D02*
X96520000Y-136906000D01*
X96962000Y-141478000D02*
X96962000Y-139446000D01*
X103124000Y-132926000D02*
X103124000Y-134632000D01*
X103124000Y-134632000D02*
X102882000Y-134874000D01*
X113750000Y-140970000D02*
X113750000Y-141055600D01*
X113750000Y-141055600D02*
X113918400Y-141224000D01*
X113918400Y-141224000D02*
X114874000Y-141224000D01*
X114874000Y-141224000D02*
X114874000Y-143256000D01*
X111186000Y-140970000D02*
X113750000Y-140970000D01*
X113750000Y-140970000D02*
X116090000Y-138630000D01*
X116090000Y-138630000D02*
X116090000Y-138430000D01*
X107696000Y-134366000D02*
X109982000Y-134366000D01*
X113538000Y-132588000D02*
X114554000Y-133604000D01*
X109982000Y-134366000D02*
X111760000Y-132588000D01*
X113334802Y-136144000D02*
X113284000Y-136144000D01*
X111760000Y-132588000D02*
X113538000Y-132588000D01*
X109286000Y-140142000D02*
X109286000Y-140970000D01*
X114554000Y-133604000D02*
X114554000Y-134924802D01*
X114554000Y-134924802D02*
X113334802Y-136144000D01*
X113284000Y-136144000D02*
X109286000Y-140142000D01*
X104382000Y-134874000D02*
X107188000Y-134874000D01*
X107188000Y-134874000D02*
X107696000Y-134366000D01*
X109061000Y-140970000D02*
X109286000Y-140970000D01*
X116774000Y-141224000D02*
X118232000Y-141224000D01*
X118232000Y-141224000D02*
X118364000Y-141356000D01*
X117590000Y-139500000D02*
X116774000Y-140316000D01*
X116774000Y-140316000D02*
X116774000Y-141224000D01*
X117590000Y-138430000D02*
X117590000Y-139500000D01*
X117590000Y-138230000D02*
X117590000Y-138430000D01*
X115570000Y-132019038D02*
X115570000Y-136210000D01*
X115570000Y-136210000D02*
X117590000Y-138230000D01*
X116144038Y-131445000D02*
X115570000Y-132019038D01*
X116840000Y-131445000D02*
X116144038Y-131445000D01*
X104902000Y-126812000D02*
X105632600Y-126812000D01*
X105632600Y-126812000D02*
X106206600Y-126238000D01*
X106206600Y-126238000D02*
X108400890Y-126238000D01*
X108400890Y-126238000D02*
X108646000Y-125992890D01*
X108646000Y-125992890D02*
X108646000Y-125237240D01*
X108646000Y-125237240D02*
X110263240Y-125237240D01*
X110263240Y-125237240D02*
X110502000Y-125476000D01*
X111948000Y-122936000D02*
X111948000Y-125422000D01*
X111948000Y-125422000D02*
X112002000Y-125476000D01*
X114554000Y-125306000D02*
X112172000Y-125306000D01*
X112172000Y-125306000D02*
X112002000Y-125476000D01*
X106746000Y-125237240D02*
X105129240Y-125237240D01*
X105129240Y-125237240D02*
X103070000Y-123178000D01*
X103070000Y-123178000D02*
X102870000Y-123178000D01*
X100330000Y-123256000D02*
X102792000Y-123256000D01*
X102792000Y-123256000D02*
X102870000Y-123178000D01*
X98232000Y-123190000D02*
X100264000Y-123190000D01*
X100264000Y-123190000D02*
X100330000Y-123256000D01*
X96332000Y-123190000D02*
X96332000Y-122459400D01*
X96332000Y-122459400D02*
X97282000Y-121509400D01*
X97282000Y-121509400D02*
X97282000Y-120142000D01*
X93914000Y-123190000D02*
X96332000Y-123190000D01*
X91694000Y-120076000D02*
X91694000Y-122870000D01*
X91694000Y-122870000D02*
X92014000Y-123190000D01*
X91694000Y-120076000D02*
X93672000Y-120076000D01*
X93672000Y-120076000D02*
X93738000Y-120142000D01*
X105730000Y-123190000D02*
X105505000Y-123190000D01*
X105505000Y-123190000D02*
X104774400Y-122459400D01*
X104774400Y-122459400D02*
X104774400Y-118473818D01*
X106090719Y-117157499D02*
X106761281Y-117157499D01*
X104774400Y-118473818D02*
X106090719Y-117157499D01*
X106761281Y-117157499D02*
X107124501Y-117520719D01*
X107124501Y-117520719D02*
X107124501Y-122119225D01*
X104826000Y-120828000D02*
X105730000Y-121732000D01*
X105730000Y-121732000D02*
X105730000Y-123190000D01*
X104826000Y-119634000D02*
X104826000Y-120828000D01*
X102870000Y-121678000D02*
X103070000Y-121678000D01*
X104582000Y-123190000D02*
X105730000Y-123190000D01*
X103070000Y-121678000D02*
X104582000Y-123190000D01*
X102870000Y-121678000D02*
X102870000Y-121590000D01*
X91760000Y-115824000D02*
X91760000Y-118110000D01*
X91760000Y-118110000D02*
X91694000Y-118176000D01*
X89276000Y-117968000D02*
X91486000Y-117968000D01*
X91486000Y-117968000D02*
X91694000Y-118176000D01*
X119532400Y-121412000D02*
X117856000Y-123088400D01*
X122428000Y-121412000D02*
X119532400Y-121412000D01*
X117856000Y-125889000D02*
X114967000Y-128778000D01*
X114967000Y-128778000D02*
X114742000Y-128778000D01*
X117856000Y-123088400D02*
X117856000Y-125889000D01*
X109759286Y-128778000D02*
X112842000Y-128778000D01*
X108192000Y-128778000D02*
X109759286Y-128778000D01*
X108451650Y-127236220D02*
X107696000Y-127236220D01*
X109759286Y-128778000D02*
X109759286Y-128543856D01*
X109759286Y-128543856D02*
X108451650Y-127236220D01*
X108192000Y-128778000D02*
X108192000Y-127732220D01*
X108192000Y-127732220D02*
X107696000Y-127236220D01*
X85090000Y-111948000D02*
X85090000Y-112903600D01*
X85090000Y-112903600D02*
X83871600Y-114122000D01*
X83871600Y-114122000D02*
X82901600Y-114122000D01*
X82901600Y-114122000D02*
X82296000Y-114122000D01*
X82296000Y-114122000D02*
X79364400Y-114122000D01*
X79364400Y-114122000D02*
X79332000Y-114089600D01*
X79332000Y-114089600D02*
X79332000Y-113284000D01*
X79332000Y-115570000D02*
X79332000Y-113284000D01*
X84498000Y-115824000D02*
X83998000Y-115824000D01*
X83998000Y-115824000D02*
X82296000Y-114122000D01*
X85344000Y-119380000D02*
X87264000Y-119380000D01*
X87264000Y-119380000D02*
X87376000Y-119268000D01*
X83312000Y-120076000D02*
X84648000Y-120076000D01*
X84648000Y-120076000D02*
X85344000Y-119380000D01*
X83312000Y-120076000D02*
X83312000Y-122362000D01*
X83312000Y-122362000D02*
X83378000Y-122428000D01*
X80772000Y-117968000D02*
X83104000Y-117968000D01*
X83104000Y-117968000D02*
X83312000Y-118176000D01*
X77132000Y-115570000D02*
X77132000Y-117698000D01*
X77132000Y-117698000D02*
X76962000Y-117868000D01*
X77282000Y-111252000D02*
X77282000Y-113134000D01*
X77282000Y-113134000D02*
X77132000Y-113284000D01*
X77132000Y-113284000D02*
X77132000Y-115570000D01*
X92588000Y-132926000D02*
X90401240Y-132926000D01*
X90401240Y-132926000D02*
X90115670Y-133211570D01*
X90115670Y-133211570D02*
X89987040Y-133211570D01*
X89987040Y-133211570D02*
X89032000Y-132256530D01*
X89032000Y-132256530D02*
X89032000Y-131556760D01*
X92588000Y-132926000D02*
X95128000Y-132926000D01*
X86492000Y-131318000D02*
X88793240Y-131318000D01*
X88793240Y-131318000D02*
X89032000Y-131556760D01*
X76708000Y-149682000D02*
X76632000Y-149606000D01*
X76708000Y-150622000D02*
X76708000Y-149682000D01*
X82296000Y-110066400D02*
X83396400Y-108966000D01*
X82296000Y-110922000D02*
X82296000Y-110066400D01*
X83396400Y-108966000D02*
X89027000Y-108966000D01*
X89027000Y-108966000D02*
X93599000Y-113538000D01*
X96393000Y-113538000D02*
X97028000Y-114173000D01*
X93599000Y-113538000D02*
X96393000Y-113538000D01*
X103716000Y-136906000D02*
X109054900Y-136906000D01*
X109054900Y-136906000D02*
X111594900Y-134366000D01*
X111594900Y-134366000D02*
X112776000Y-134366000D01*
X104936118Y-128712000D02*
X105891718Y-129667600D01*
X104902000Y-128712000D02*
X104936118Y-128712000D01*
X105891718Y-129667600D02*
X114199000Y-129667600D01*
X114833400Y-130302000D02*
X116840000Y-130302000D01*
X114199000Y-129667600D02*
X114833400Y-130302000D01*
D38*
X99951868Y-104648000D02*
X89850974Y-104648000D01*
X89850974Y-104648000D02*
X88834974Y-105664000D01*
X88834974Y-105664000D02*
X85968842Y-105664000D01*
X85968842Y-105664000D02*
X84203573Y-107429269D01*
X84203573Y-107429269D02*
X82219769Y-107429269D01*
X82219769Y-107429269D02*
X80772000Y-105981500D01*
X80772000Y-105981500D02*
X80772000Y-105410000D01*
X80772000Y-105410000D02*
X80772000Y-103124000D01*
X98806000Y-117094000D02*
X98298000Y-117602000D01*
X98298000Y-117602000D02*
X96774000Y-117602000D01*
X97586801Y-114441225D02*
X97586801Y-113904775D01*
X97586801Y-113904775D02*
X96800916Y-113118890D01*
X83928690Y-108318280D02*
X83479678Y-108318280D01*
X89522280Y-108318280D02*
X83928690Y-108318280D01*
X96774000Y-117602000D02*
X96774000Y-115254026D01*
X94322890Y-113118890D02*
X89522280Y-108318280D01*
X96800916Y-113118890D02*
X94322890Y-113118890D01*
X96774000Y-115254026D02*
X97586801Y-114441225D01*
D37*
X86698000Y-115824000D02*
X86698000Y-113962000D01*
X86698000Y-113962000D02*
X86868000Y-113792000D01*
X86698000Y-115824000D02*
X86698000Y-117290000D01*
X86698000Y-117290000D02*
X87376000Y-117968000D01*
X86698000Y-115824000D02*
X86698000Y-116526000D01*
X86698000Y-116526000D02*
X85344000Y-117880000D01*
X82804000Y-106680000D02*
X83172299Y-106311701D01*
X83172299Y-106311701D02*
X84728431Y-106311701D01*
X87916132Y-103124000D02*
X88900000Y-103124000D01*
X84728431Y-106311701D02*
X87916132Y-103124000D01*
X105156000Y-103124000D02*
X88900000Y-103124000D01*
X96475718Y-118173490D02*
X101092000Y-118173490D01*
X95274993Y-116972765D02*
X96475718Y-118173490D01*
X98552000Y-141478000D02*
X96520000Y-143510000D01*
X96520000Y-143510000D02*
X96266000Y-143510000D01*
D38*
X115062000Y-118872000D02*
X114300000Y-118110000D01*
X110005498Y-118110000D02*
X114300000Y-118110000D01*
D37*
X109800000Y-118110000D02*
X110005498Y-118110000D01*
D38*
X83312000Y-105664000D02*
X83820000Y-105664000D01*
X83312000Y-103124000D02*
X83312000Y-105664000D01*
X95017126Y-112788680D02*
X96937693Y-112788680D01*
X89045368Y-106816922D02*
X95017126Y-112788680D01*
X96937693Y-112788680D02*
X97917011Y-113767998D01*
X97917011Y-113767998D02*
X97917011Y-116522449D01*
X97917011Y-116522449D02*
X97713779Y-116725681D01*
X97713779Y-116725681D02*
X97396280Y-117043180D01*
X90111012Y-105410000D02*
X89662000Y-105410000D01*
X100838000Y-116586000D02*
X100838000Y-116136988D01*
X89662000Y-105410000D02*
X87312521Y-107759479D01*
X100838000Y-116136988D02*
X90111012Y-105410000D01*
X81978521Y-107759479D02*
X81597499Y-108140501D01*
X81597499Y-108140501D02*
X81280000Y-108458000D01*
X87312521Y-107759479D02*
X81978521Y-107759479D01*
X78232000Y-107950000D02*
X78232000Y-105524035D01*
X78232000Y-105524035D02*
X78232000Y-105410000D01*
X78232000Y-103124000D02*
X78232000Y-104825800D01*
X78232000Y-104825800D02*
X78232000Y-105524035D01*
X76200000Y-109982000D02*
X78232000Y-107950000D01*
X75692000Y-108458000D02*
X75692000Y-105543800D01*
X75692000Y-105543800D02*
X75692000Y-105410000D01*
X75692000Y-103124000D02*
X75692000Y-105543800D01*
X108026000Y-119634000D02*
X108276000Y-119634000D01*
X108276000Y-119634000D02*
X108703800Y-119206200D01*
D37*
X108741702Y-119168298D02*
X109800000Y-118110000D01*
D38*
X108703800Y-119206200D02*
X108741702Y-119168298D01*
D37*
X119468900Y-134937500D02*
X122428000Y-134937500D01*
X117119400Y-132588000D02*
X119468900Y-134937500D01*
X116840000Y-132588000D02*
X117119400Y-132588000D01*
D39*
G36*
X119888000Y-131826000D02*
X119126000Y-131826000D01*
X119126000Y-129286000D01*
X119888000Y-129286000D01*
X119888000Y-131826000D01*
X119888000Y-131826000D01*
G37*
X119888000Y-131826000D02*
X119126000Y-131826000D01*
X119126000Y-129286000D01*
X119888000Y-129286000D01*
X119888000Y-131826000D01*
M02*
