G04 #@! TF.FileFunction,Copper,L2,Inr,Plane*
%FSLAX46Y46*%
G04 Gerber Fmt 4.6, Leading zero omitted, Abs format (unit mm)*
G04 Created by KiCad (PCBNEW (2015-03-31 BZR 5561)-product) date Tue 28 Apr 2015 10:13:20 PM CDT*
%MOMM*%
G01*
G04 APERTURE LIST*
%ADD10C,0.100000*%
%ADD11C,1.651000*%
%ADD12R,1.651000X1.651000*%
%ADD13R,2.032000X2.032000*%
%ADD14O,2.032000X2.032000*%
%ADD15C,0.635000*%
%ADD16C,0.355600*%
%ADD17C,0.254000*%
G04 APERTURE END LIST*
D10*
D11*
X107696000Y-134366000D03*
X110236000Y-131826000D03*
D12*
X112776000Y-134366000D03*
D13*
X107696000Y-103124000D03*
D14*
X105156000Y-103124000D03*
D13*
X123444000Y-103124000D03*
D14*
X120904000Y-103124000D03*
D15*
X119380000Y-140081000D03*
X119380000Y-139573000D03*
X119380000Y-139065000D03*
X119380000Y-138557000D03*
X119380000Y-138049000D03*
X119253000Y-127000000D03*
X119253000Y-126492000D03*
X119253000Y-125984000D03*
X119253000Y-125476000D03*
X119253000Y-124968000D03*
X119507000Y-118110000D03*
X119507000Y-117602000D03*
X119507000Y-117094000D03*
X119507000Y-116586000D03*
X119507000Y-116078000D03*
X85344000Y-103124000D03*
X87615855Y-106665855D03*
X90424000Y-106934000D03*
X85598000Y-143764000D03*
X81534000Y-115570000D03*
X93472000Y-124968000D03*
X88392000Y-109728000D03*
X122174000Y-106934000D03*
X116078000Y-111506000D03*
X122174000Y-105918000D03*
X121158000Y-106934000D03*
X121158000Y-105918000D03*
X116332000Y-107950000D03*
X117016881Y-106757119D03*
X113792000Y-114300000D03*
X113792000Y-113284000D03*
X116078000Y-110236000D03*
X116078000Y-108966000D03*
X106426000Y-117856000D03*
X108458000Y-124206000D03*
X106426000Y-127508000D03*
X88646000Y-115570000D03*
X83820000Y-110236000D03*
X80518000Y-110490000D03*
X78232000Y-151638000D03*
X98806000Y-133350000D03*
X98806000Y-118872000D03*
X96012000Y-118872000D03*
X99314000Y-125476000D03*
X105156000Y-141478000D03*
X105156000Y-139446000D03*
X94996000Y-138430000D03*
X94996000Y-142494000D03*
X87630000Y-148844000D03*
X88392000Y-148082000D03*
X82550000Y-139192000D03*
X87376000Y-140462000D03*
X80772000Y-130810000D03*
X84836000Y-135382000D03*
X82296000Y-134112000D03*
X92964000Y-127508000D03*
X91186000Y-127000000D03*
X81824702Y-128270000D03*
X80010000Y-127000000D03*
X80010000Y-127762000D03*
X88392000Y-119126000D03*
X89408000Y-120142000D03*
X86868000Y-122428000D03*
X78232000Y-117348000D03*
X81788000Y-119380000D03*
X112522000Y-144780000D03*
X107188000Y-144526000D03*
X99822000Y-144018000D03*
X101600000Y-108712000D03*
X94867479Y-144387118D03*
X119380000Y-130556000D03*
X119380000Y-131064000D03*
X119380000Y-130048000D03*
X119380000Y-129540000D03*
X119380000Y-131572000D03*
X89916000Y-113792000D03*
X93980000Y-114554000D03*
X118872000Y-144399000D03*
X116332000Y-148971000D03*
X112776000Y-120396000D03*
X115316000Y-122174000D03*
X96951000Y-134289000D03*
X76708000Y-150622000D03*
X97028000Y-114173000D03*
X99951868Y-104648000D03*
X98806000Y-117094000D03*
X83479678Y-108318280D03*
X82804000Y-106680000D03*
X101092000Y-118173490D03*
X95274993Y-116972765D03*
X96266000Y-143510000D03*
X98552000Y-141478000D03*
X115062000Y-118872000D03*
X83820000Y-105664000D03*
X97396280Y-117043180D03*
X89045368Y-106816922D03*
X81280000Y-108458000D03*
X100838000Y-116586000D03*
X76200000Y-109982000D03*
X75692000Y-108458000D03*
D16*
X119634000Y-125222000D02*
X119616983Y-125239017D01*
X119616983Y-125239017D02*
X119853966Y-125476000D01*
X107696000Y-103124000D02*
X107696000Y-104495600D01*
X107696000Y-104495600D02*
X103479600Y-108712000D01*
X103479600Y-108712000D02*
X102049012Y-108712000D01*
X102049012Y-108712000D02*
X101600000Y-108712000D01*
X87615855Y-106665855D02*
X87615855Y-105395855D01*
X87615855Y-105395855D02*
X85344000Y-103124000D01*
X87122000Y-110236000D02*
X84269012Y-110236000D01*
X90424000Y-106934000D02*
X87122000Y-110236000D01*
X84269012Y-110236000D02*
X83820000Y-110236000D01*
X112522000Y-144780000D02*
X117094000Y-144780000D01*
X117094000Y-144780000D02*
X117602000Y-144272000D01*
X107188000Y-144526000D02*
X112268000Y-144526000D01*
X112268000Y-144526000D02*
X112522000Y-144780000D01*
X105156000Y-141478000D02*
X105156000Y-142494000D01*
X105156000Y-142494000D02*
X107188000Y-144526000D01*
X99822000Y-144018000D02*
X102616000Y-144018000D01*
X102616000Y-144018000D02*
X105156000Y-141478000D01*
X87630000Y-148844000D02*
X81026000Y-148844000D01*
X81026000Y-148844000D02*
X78232000Y-151638000D01*
X84836000Y-135382000D02*
X84836000Y-136906000D01*
X84836000Y-136906000D02*
X82550000Y-139192000D01*
X82296000Y-134112000D02*
X83566000Y-134112000D01*
X83566000Y-134112000D02*
X84836000Y-135382000D01*
X87376000Y-140462000D02*
X83820000Y-140462000D01*
X83820000Y-140462000D02*
X82550000Y-139192000D01*
X94996000Y-138430000D02*
X94996000Y-137160000D01*
X94996000Y-137160000D02*
X98806000Y-133350000D01*
X98806000Y-133350000D02*
X100584000Y-133350000D01*
X100584000Y-133350000D02*
X106426000Y-127508000D01*
X92964000Y-127508000D02*
X98806000Y-133350000D01*
X99314000Y-125476000D02*
X97282000Y-127508000D01*
X97282000Y-127508000D02*
X92964000Y-127508000D01*
X99314000Y-125476000D02*
X99314000Y-119380000D01*
X99314000Y-119380000D02*
X98806000Y-118872000D01*
X98806000Y-118872000D02*
X105410000Y-118872000D01*
X105410000Y-118872000D02*
X106426000Y-117856000D01*
X96012000Y-118872000D02*
X98356988Y-118872000D01*
X98356988Y-118872000D02*
X98806000Y-118872000D01*
X89408000Y-120142000D02*
X89154000Y-120142000D01*
X89154000Y-120142000D02*
X86868000Y-122428000D01*
X89408000Y-120142000D02*
X88392000Y-119126000D01*
X88646000Y-115570000D02*
X88646000Y-118872000D01*
X88646000Y-118872000D02*
X88392000Y-119126000D01*
X114300000Y-114300000D02*
X109982000Y-114300000D01*
X109982000Y-114300000D02*
X106426000Y-117856000D01*
X94418467Y-144387118D02*
X94867479Y-144387118D01*
X88392000Y-148082000D02*
X92086882Y-144387118D01*
X92086882Y-144387118D02*
X94418467Y-144387118D01*
X94996000Y-144258597D02*
X94867479Y-144387118D01*
X94996000Y-142494000D02*
X94996000Y-144258597D01*
X93980000Y-116840000D02*
X96012000Y-118872000D01*
X93980000Y-114554000D02*
X93980000Y-116840000D01*
X89662000Y-114554000D02*
X88646000Y-115570000D01*
X93980000Y-114554000D02*
X89662000Y-114554000D01*
D17*
G36*
X124283000Y-151715000D02*
X120777000Y-151715000D01*
X120777000Y-104610836D01*
X120777000Y-103251000D01*
X119416633Y-103251000D01*
X119298017Y-103506946D01*
X119566812Y-104092379D01*
X120039182Y-104530385D01*
X120521056Y-104729975D01*
X120777000Y-104610836D01*
X120777000Y-151715000D01*
X120666766Y-151715000D01*
X120666766Y-125476000D01*
X120604895Y-125164955D01*
X120459665Y-124947602D01*
X120459665Y-117921367D01*
X120432768Y-117856273D01*
X120459335Y-117792295D01*
X120459665Y-117413367D01*
X120432768Y-117348273D01*
X120459335Y-117284295D01*
X120459665Y-116905367D01*
X120432768Y-116840273D01*
X120459335Y-116776295D01*
X120459665Y-116397367D01*
X120432768Y-116332273D01*
X120459335Y-116268295D01*
X120459665Y-115889367D01*
X120314961Y-115539157D01*
X120047253Y-115270980D01*
X119697295Y-115125665D01*
X119318367Y-115125335D01*
X118968157Y-115270039D01*
X118699980Y-115537747D01*
X118554665Y-115887705D01*
X118554335Y-116266633D01*
X118581231Y-116331726D01*
X118554665Y-116395705D01*
X118554335Y-116774633D01*
X118581231Y-116839726D01*
X118554665Y-116903705D01*
X118554335Y-117282633D01*
X118581231Y-117347726D01*
X118554665Y-117411705D01*
X118554335Y-117790633D01*
X118581231Y-117855726D01*
X118554665Y-117919705D01*
X118554335Y-118298633D01*
X118699039Y-118648843D01*
X118966747Y-118917020D01*
X119316705Y-119062335D01*
X119695633Y-119062665D01*
X120045843Y-118917961D01*
X120314020Y-118650253D01*
X120459335Y-118300295D01*
X120459665Y-117921367D01*
X120459665Y-124947602D01*
X120428703Y-124901264D01*
X120277271Y-124749833D01*
X120208737Y-124647263D01*
X120129091Y-124594046D01*
X120060961Y-124429157D01*
X119793253Y-124160980D01*
X119443295Y-124015665D01*
X119064367Y-124015335D01*
X118714157Y-124160039D01*
X118445980Y-124427747D01*
X118300665Y-124777705D01*
X118300335Y-125156633D01*
X118327231Y-125221726D01*
X118300665Y-125285705D01*
X118300335Y-125664633D01*
X118327231Y-125729726D01*
X118300665Y-125793705D01*
X118300335Y-126172633D01*
X118327231Y-126237726D01*
X118300665Y-126301705D01*
X118300335Y-126680633D01*
X118327231Y-126745726D01*
X118300665Y-126809705D01*
X118300335Y-127188633D01*
X118445039Y-127538843D01*
X118712747Y-127807020D01*
X119062705Y-127952335D01*
X119441633Y-127952665D01*
X119791843Y-127807961D01*
X120060020Y-127540253D01*
X120205335Y-127190295D01*
X120205665Y-126811367D01*
X120178768Y-126746273D01*
X120205335Y-126682295D01*
X120205665Y-126303367D01*
X120178768Y-126238273D01*
X120190571Y-126209850D01*
X120428703Y-126050737D01*
X120604895Y-125787045D01*
X120666766Y-125476000D01*
X120666766Y-151715000D01*
X120332665Y-151715000D01*
X120332665Y-139892367D01*
X120305768Y-139827273D01*
X120332335Y-139763295D01*
X120332665Y-139384367D01*
X120305768Y-139319273D01*
X120332335Y-139255295D01*
X120332665Y-138876367D01*
X120305768Y-138811273D01*
X120332335Y-138747295D01*
X120332665Y-138368367D01*
X120305768Y-138303273D01*
X120332335Y-138239295D01*
X120332665Y-137860367D01*
X120187961Y-137510157D01*
X119920253Y-137241980D01*
X119570295Y-137096665D01*
X119191367Y-137096335D01*
X118841157Y-137241039D01*
X118572980Y-137508747D01*
X118427665Y-137858705D01*
X118427335Y-138237633D01*
X118454231Y-138302726D01*
X118427665Y-138366705D01*
X118427335Y-138745633D01*
X118454231Y-138810726D01*
X118427665Y-138874705D01*
X118427335Y-139253633D01*
X118454231Y-139318726D01*
X118427665Y-139382705D01*
X118427335Y-139761633D01*
X118454231Y-139826726D01*
X118427665Y-139890705D01*
X118427335Y-140269633D01*
X118572039Y-140619843D01*
X118839747Y-140888020D01*
X119189705Y-141033335D01*
X119568633Y-141033665D01*
X119918843Y-140888961D01*
X120187020Y-140621253D01*
X120332335Y-140271295D01*
X120332665Y-139892367D01*
X120332665Y-151715000D01*
X117284665Y-151715000D01*
X117284665Y-148782367D01*
X117139961Y-148432157D01*
X116872253Y-148163980D01*
X116522295Y-148018665D01*
X116268665Y-148018444D01*
X116268665Y-121985367D01*
X116123961Y-121635157D01*
X116014665Y-121525669D01*
X116014665Y-118683367D01*
X115869961Y-118333157D01*
X115602253Y-118064980D01*
X115252295Y-117919665D01*
X114873367Y-117919335D01*
X114523157Y-118064039D01*
X114254980Y-118331747D01*
X114109665Y-118681705D01*
X114109335Y-119060633D01*
X114254039Y-119410843D01*
X114521747Y-119679020D01*
X114871705Y-119824335D01*
X115250633Y-119824665D01*
X115600843Y-119679961D01*
X115869020Y-119412253D01*
X116014335Y-119062295D01*
X116014665Y-118683367D01*
X116014665Y-121525669D01*
X115856253Y-121366980D01*
X115506295Y-121221665D01*
X115127367Y-121221335D01*
X114777157Y-121366039D01*
X114508980Y-121633747D01*
X114363665Y-121983705D01*
X114363335Y-122362633D01*
X114508039Y-122712843D01*
X114775747Y-122981020D01*
X115125705Y-123126335D01*
X115504633Y-123126665D01*
X115854843Y-122981961D01*
X116123020Y-122714253D01*
X116268335Y-122364295D01*
X116268665Y-121985367D01*
X116268665Y-148018444D01*
X116143367Y-148018335D01*
X115793157Y-148163039D01*
X115524980Y-148430747D01*
X115379665Y-148780705D01*
X115379335Y-149159633D01*
X115524039Y-149509843D01*
X115791747Y-149778020D01*
X116141705Y-149923335D01*
X116520633Y-149923665D01*
X116870843Y-149778961D01*
X117139020Y-149511253D01*
X117284335Y-149161295D01*
X117284665Y-148782367D01*
X117284665Y-151715000D01*
X114248940Y-151715000D01*
X114248940Y-135191500D01*
X114248940Y-133540500D01*
X114201963Y-133298377D01*
X114062173Y-133085573D01*
X113851140Y-132943123D01*
X113728665Y-132918561D01*
X113728665Y-120207367D01*
X113583961Y-119857157D01*
X113316253Y-119588980D01*
X112966295Y-119443665D01*
X112587367Y-119443335D01*
X112237157Y-119588039D01*
X111968980Y-119855747D01*
X111823665Y-120205705D01*
X111823335Y-120584633D01*
X111968039Y-120934843D01*
X112235747Y-121203020D01*
X112585705Y-121348335D01*
X112964633Y-121348665D01*
X113314843Y-121203961D01*
X113583020Y-120936253D01*
X113728335Y-120586295D01*
X113728665Y-120207367D01*
X113728665Y-132918561D01*
X113601500Y-132893060D01*
X111950500Y-132893060D01*
X111708377Y-132940037D01*
X111696753Y-132947672D01*
X111696753Y-131536763D01*
X111474874Y-130999774D01*
X111064387Y-130588570D01*
X110527786Y-130365754D01*
X109946763Y-130365247D01*
X109409774Y-130587126D01*
X109347000Y-130649790D01*
X109347000Y-104266309D01*
X109347000Y-103409750D01*
X109188250Y-103251000D01*
X107823000Y-103251000D01*
X107823000Y-104616250D01*
X107981750Y-104775000D01*
X108585691Y-104775000D01*
X108838310Y-104775000D01*
X109071699Y-104678327D01*
X109250327Y-104499698D01*
X109347000Y-104266309D01*
X109347000Y-130649790D01*
X108998570Y-130997613D01*
X108775754Y-131534214D01*
X108775247Y-132115237D01*
X108997126Y-132652226D01*
X109407613Y-133063430D01*
X109944214Y-133286246D01*
X110525237Y-133286753D01*
X111062226Y-133064874D01*
X111473430Y-132654387D01*
X111696246Y-132117786D01*
X111696753Y-131536763D01*
X111696753Y-132947672D01*
X111495573Y-133079827D01*
X111353123Y-133290860D01*
X111303060Y-133540500D01*
X111303060Y-135191500D01*
X111350037Y-135433623D01*
X111489827Y-135646427D01*
X111700860Y-135788877D01*
X111950500Y-135838940D01*
X113601500Y-135838940D01*
X113843623Y-135791963D01*
X114056427Y-135652173D01*
X114198877Y-135441140D01*
X114248940Y-135191500D01*
X114248940Y-151715000D01*
X109156753Y-151715000D01*
X109156753Y-134076763D01*
X108934874Y-133539774D01*
X108524387Y-133128570D01*
X107987786Y-132905754D01*
X107406763Y-132905247D01*
X106869774Y-133127126D01*
X106458570Y-133537613D01*
X106235754Y-134074214D01*
X106235247Y-134655237D01*
X106457126Y-135192226D01*
X106867613Y-135603430D01*
X107404214Y-135826246D01*
X107985237Y-135826753D01*
X108522226Y-135604874D01*
X108933430Y-135194387D01*
X109156246Y-134657786D01*
X109156753Y-134076763D01*
X109156753Y-151715000D01*
X102044665Y-151715000D01*
X102044665Y-117984857D01*
X101899961Y-117634647D01*
X101632253Y-117366470D01*
X101471323Y-117299646D01*
X101645020Y-117126253D01*
X101790335Y-116776295D01*
X101790665Y-116397367D01*
X101645961Y-116047157D01*
X101378253Y-115778980D01*
X101028295Y-115633665D01*
X100904533Y-115633557D01*
X100904533Y-104459367D01*
X100759829Y-104109157D01*
X100492121Y-103840980D01*
X100142163Y-103695665D01*
X99763235Y-103695335D01*
X99413025Y-103840039D01*
X99144848Y-104107747D01*
X98999533Y-104457705D01*
X98999203Y-104836633D01*
X99143907Y-105186843D01*
X99411615Y-105455020D01*
X99761573Y-105600335D01*
X100140501Y-105600665D01*
X100490711Y-105455961D01*
X100758888Y-105188253D01*
X100904203Y-104838295D01*
X100904533Y-104459367D01*
X100904533Y-115633557D01*
X100649367Y-115633335D01*
X100299157Y-115778039D01*
X100030980Y-116045747D01*
X99885665Y-116395705D01*
X99885335Y-116774633D01*
X100030039Y-117124843D01*
X100297747Y-117393020D01*
X100458676Y-117459843D01*
X100284980Y-117633237D01*
X100139665Y-117983195D01*
X100139335Y-118362123D01*
X100284039Y-118712333D01*
X100551747Y-118980510D01*
X100901705Y-119125825D01*
X101280633Y-119126155D01*
X101630843Y-118981451D01*
X101899020Y-118713743D01*
X102044335Y-118363785D01*
X102044665Y-117984857D01*
X102044665Y-151715000D01*
X99758665Y-151715000D01*
X99758665Y-116905367D01*
X99613961Y-116555157D01*
X99346253Y-116286980D01*
X98996295Y-116141665D01*
X98617367Y-116141335D01*
X98267157Y-116286039D01*
X98126495Y-116426454D01*
X97980665Y-116280369D01*
X97980665Y-113984367D01*
X97835961Y-113634157D01*
X97568253Y-113365980D01*
X97218295Y-113220665D01*
X96839367Y-113220335D01*
X96489157Y-113365039D01*
X96220980Y-113632747D01*
X96075665Y-113982705D01*
X96075335Y-114361633D01*
X96220039Y-114711843D01*
X96487747Y-114980020D01*
X96837705Y-115125335D01*
X97216633Y-115125665D01*
X97566843Y-114980961D01*
X97835020Y-114713253D01*
X97980335Y-114363295D01*
X97980665Y-113984367D01*
X97980665Y-116280369D01*
X97936533Y-116236160D01*
X97586575Y-116090845D01*
X97207647Y-116090515D01*
X96857437Y-116235219D01*
X96589260Y-116502927D01*
X96443945Y-116852885D01*
X96443615Y-117231813D01*
X96588319Y-117582023D01*
X96856027Y-117850200D01*
X97205985Y-117995515D01*
X97584913Y-117995845D01*
X97935123Y-117851141D01*
X98075784Y-117710725D01*
X98265747Y-117901020D01*
X98615705Y-118046335D01*
X98994633Y-118046665D01*
X99344843Y-117901961D01*
X99613020Y-117634253D01*
X99758335Y-117284295D01*
X99758665Y-116905367D01*
X99758665Y-151715000D01*
X99504665Y-151715000D01*
X99504665Y-141289367D01*
X99359961Y-140939157D01*
X99092253Y-140670980D01*
X98742295Y-140525665D01*
X98363367Y-140525335D01*
X98013157Y-140670039D01*
X97903665Y-140779339D01*
X97903665Y-134100367D01*
X97758961Y-133750157D01*
X97491253Y-133481980D01*
X97141295Y-133336665D01*
X96762367Y-133336335D01*
X96412157Y-133481039D01*
X96227658Y-133665215D01*
X96227658Y-116784132D01*
X96082954Y-116433922D01*
X95815246Y-116165745D01*
X95465288Y-116020430D01*
X95086360Y-116020100D01*
X94736150Y-116164804D01*
X94467973Y-116432512D01*
X94322658Y-116782470D01*
X94322328Y-117161398D01*
X94467032Y-117511608D01*
X94734740Y-117779785D01*
X95084698Y-117925100D01*
X95463626Y-117925430D01*
X95813836Y-117780726D01*
X96082013Y-117513018D01*
X96227328Y-117163060D01*
X96227658Y-116784132D01*
X96227658Y-133665215D01*
X96143980Y-133748747D01*
X95998665Y-134098705D01*
X95998335Y-134477633D01*
X96143039Y-134827843D01*
X96410747Y-135096020D01*
X96760705Y-135241335D01*
X97139633Y-135241665D01*
X97489843Y-135096961D01*
X97758020Y-134829253D01*
X97903335Y-134479295D01*
X97903665Y-134100367D01*
X97903665Y-140779339D01*
X97744980Y-140937747D01*
X97599665Y-141287705D01*
X97599335Y-141666633D01*
X97744039Y-142016843D01*
X98011747Y-142285020D01*
X98361705Y-142430335D01*
X98740633Y-142430665D01*
X99090843Y-142285961D01*
X99359020Y-142018253D01*
X99504335Y-141668295D01*
X99504665Y-141289367D01*
X99504665Y-151715000D01*
X97218665Y-151715000D01*
X97218665Y-143321367D01*
X97073961Y-142971157D01*
X96806253Y-142702980D01*
X96456295Y-142557665D01*
X96077367Y-142557335D01*
X95727157Y-142702039D01*
X95458980Y-142969747D01*
X95313665Y-143319705D01*
X95313335Y-143698633D01*
X95458039Y-144048843D01*
X95725747Y-144317020D01*
X96075705Y-144462335D01*
X96454633Y-144462665D01*
X96804843Y-144317961D01*
X97073020Y-144050253D01*
X97218335Y-143700295D01*
X97218665Y-143321367D01*
X97218665Y-151715000D01*
X89998033Y-151715000D01*
X89998033Y-106628289D01*
X89853329Y-106278079D01*
X89585621Y-106009902D01*
X89235663Y-105864587D01*
X88856735Y-105864257D01*
X88506525Y-106008961D01*
X88238348Y-106276669D01*
X88093033Y-106626627D01*
X88092703Y-107005555D01*
X88237407Y-107355765D01*
X88505115Y-107623942D01*
X88855073Y-107769257D01*
X89234001Y-107769587D01*
X89584211Y-107624883D01*
X89852388Y-107357175D01*
X89997703Y-107007217D01*
X89998033Y-106628289D01*
X89998033Y-151715000D01*
X84772665Y-151715000D01*
X84772665Y-105475367D01*
X84627961Y-105125157D01*
X84360253Y-104856980D01*
X84010295Y-104711665D01*
X83631367Y-104711335D01*
X83281157Y-104856039D01*
X83012980Y-105123747D01*
X82867665Y-105473705D01*
X82867443Y-105727554D01*
X82615367Y-105727335D01*
X82265157Y-105872039D01*
X81996980Y-106139747D01*
X81851665Y-106489705D01*
X81851335Y-106868633D01*
X81996039Y-107218843D01*
X82263747Y-107487020D01*
X82613705Y-107632335D01*
X82818426Y-107632513D01*
X82672658Y-107778027D01*
X82527343Y-108127985D01*
X82527013Y-108506913D01*
X82671717Y-108857123D01*
X82939425Y-109125300D01*
X83289383Y-109270615D01*
X83668311Y-109270945D01*
X84018521Y-109126241D01*
X84286698Y-108858533D01*
X84432013Y-108508575D01*
X84432343Y-108129647D01*
X84287639Y-107779437D01*
X84019931Y-107511260D01*
X83669973Y-107365945D01*
X83465251Y-107365766D01*
X83611020Y-107220253D01*
X83756335Y-106870295D01*
X83756556Y-106616445D01*
X84008633Y-106616665D01*
X84358843Y-106471961D01*
X84627020Y-106204253D01*
X84772335Y-105854295D01*
X84772665Y-105475367D01*
X84772665Y-151715000D01*
X82232665Y-151715000D01*
X82232665Y-108269367D01*
X82087961Y-107919157D01*
X81820253Y-107650980D01*
X81470295Y-107505665D01*
X81091367Y-107505335D01*
X80741157Y-107650039D01*
X80472980Y-107917747D01*
X80327665Y-108267705D01*
X80327335Y-108646633D01*
X80472039Y-108996843D01*
X80739747Y-109265020D01*
X81089705Y-109410335D01*
X81468633Y-109410665D01*
X81818843Y-109265961D01*
X82087020Y-108998253D01*
X82232335Y-108648295D01*
X82232665Y-108269367D01*
X82232665Y-151715000D01*
X77660665Y-151715000D01*
X77660665Y-150433367D01*
X77515961Y-150083157D01*
X77248253Y-149814980D01*
X76898295Y-149669665D01*
X76519367Y-149669335D01*
X76169157Y-149814039D01*
X75900980Y-150081747D01*
X75755665Y-150431705D01*
X75755335Y-150810633D01*
X75900039Y-151160843D01*
X76167747Y-151429020D01*
X76517705Y-151574335D01*
X76896633Y-151574665D01*
X77246843Y-151429961D01*
X77515020Y-151162253D01*
X77660335Y-150812295D01*
X77660665Y-150433367D01*
X77660665Y-151715000D01*
X74853000Y-151715000D01*
X74853000Y-108921722D01*
X74884039Y-108996843D01*
X75151747Y-109265020D01*
X75447142Y-109387678D01*
X75392980Y-109441747D01*
X75247665Y-109791705D01*
X75247335Y-110170633D01*
X75392039Y-110520843D01*
X75659747Y-110789020D01*
X76009705Y-110934335D01*
X76388633Y-110934665D01*
X76738843Y-110789961D01*
X77007020Y-110522253D01*
X77152335Y-110172295D01*
X77152665Y-109793367D01*
X77007961Y-109443157D01*
X76740253Y-109174980D01*
X76444857Y-109052321D01*
X76499020Y-108998253D01*
X76644335Y-108648295D01*
X76644665Y-108269367D01*
X76499961Y-107919157D01*
X76232253Y-107650980D01*
X75882295Y-107505665D01*
X75503367Y-107505335D01*
X75153157Y-107650039D01*
X74884980Y-107917747D01*
X74853000Y-107994763D01*
X74853000Y-102285000D01*
X103747502Y-102285000D01*
X103630675Y-102459845D01*
X103505000Y-103091655D01*
X103505000Y-103156345D01*
X103630675Y-103788155D01*
X103988567Y-104323778D01*
X104524190Y-104681670D01*
X105156000Y-104807345D01*
X105787810Y-104681670D01*
X106124001Y-104457034D01*
X106141673Y-104499698D01*
X106320301Y-104678327D01*
X106553690Y-104775000D01*
X106806309Y-104775000D01*
X107410250Y-104775000D01*
X107569000Y-104616250D01*
X107569000Y-103251000D01*
X107549000Y-103251000D01*
X107549000Y-102997000D01*
X107569000Y-102997000D01*
X107569000Y-102977000D01*
X107823000Y-102977000D01*
X107823000Y-102997000D01*
X109188250Y-102997000D01*
X109347000Y-102838250D01*
X109347000Y-102285000D01*
X119507409Y-102285000D01*
X119298017Y-102741054D01*
X119416633Y-102997000D01*
X120777000Y-102997000D01*
X120777000Y-102977000D01*
X121031000Y-102977000D01*
X121031000Y-102997000D01*
X121051000Y-102997000D01*
X121051000Y-103251000D01*
X121031000Y-103251000D01*
X121031000Y-104610836D01*
X121286944Y-104729975D01*
X121768818Y-104530385D01*
X121865835Y-104440425D01*
X121967327Y-104594927D01*
X122178360Y-104737377D01*
X122428000Y-104787440D01*
X124283000Y-104787440D01*
X124283000Y-151715000D01*
X124283000Y-151715000D01*
G37*
X124283000Y-151715000D02*
X120777000Y-151715000D01*
X120777000Y-104610836D01*
X120777000Y-103251000D01*
X119416633Y-103251000D01*
X119298017Y-103506946D01*
X119566812Y-104092379D01*
X120039182Y-104530385D01*
X120521056Y-104729975D01*
X120777000Y-104610836D01*
X120777000Y-151715000D01*
X120666766Y-151715000D01*
X120666766Y-125476000D01*
X120604895Y-125164955D01*
X120459665Y-124947602D01*
X120459665Y-117921367D01*
X120432768Y-117856273D01*
X120459335Y-117792295D01*
X120459665Y-117413367D01*
X120432768Y-117348273D01*
X120459335Y-117284295D01*
X120459665Y-116905367D01*
X120432768Y-116840273D01*
X120459335Y-116776295D01*
X120459665Y-116397367D01*
X120432768Y-116332273D01*
X120459335Y-116268295D01*
X120459665Y-115889367D01*
X120314961Y-115539157D01*
X120047253Y-115270980D01*
X119697295Y-115125665D01*
X119318367Y-115125335D01*
X118968157Y-115270039D01*
X118699980Y-115537747D01*
X118554665Y-115887705D01*
X118554335Y-116266633D01*
X118581231Y-116331726D01*
X118554665Y-116395705D01*
X118554335Y-116774633D01*
X118581231Y-116839726D01*
X118554665Y-116903705D01*
X118554335Y-117282633D01*
X118581231Y-117347726D01*
X118554665Y-117411705D01*
X118554335Y-117790633D01*
X118581231Y-117855726D01*
X118554665Y-117919705D01*
X118554335Y-118298633D01*
X118699039Y-118648843D01*
X118966747Y-118917020D01*
X119316705Y-119062335D01*
X119695633Y-119062665D01*
X120045843Y-118917961D01*
X120314020Y-118650253D01*
X120459335Y-118300295D01*
X120459665Y-117921367D01*
X120459665Y-124947602D01*
X120428703Y-124901264D01*
X120277271Y-124749833D01*
X120208737Y-124647263D01*
X120129091Y-124594046D01*
X120060961Y-124429157D01*
X119793253Y-124160980D01*
X119443295Y-124015665D01*
X119064367Y-124015335D01*
X118714157Y-124160039D01*
X118445980Y-124427747D01*
X118300665Y-124777705D01*
X118300335Y-125156633D01*
X118327231Y-125221726D01*
X118300665Y-125285705D01*
X118300335Y-125664633D01*
X118327231Y-125729726D01*
X118300665Y-125793705D01*
X118300335Y-126172633D01*
X118327231Y-126237726D01*
X118300665Y-126301705D01*
X118300335Y-126680633D01*
X118327231Y-126745726D01*
X118300665Y-126809705D01*
X118300335Y-127188633D01*
X118445039Y-127538843D01*
X118712747Y-127807020D01*
X119062705Y-127952335D01*
X119441633Y-127952665D01*
X119791843Y-127807961D01*
X120060020Y-127540253D01*
X120205335Y-127190295D01*
X120205665Y-126811367D01*
X120178768Y-126746273D01*
X120205335Y-126682295D01*
X120205665Y-126303367D01*
X120178768Y-126238273D01*
X120190571Y-126209850D01*
X120428703Y-126050737D01*
X120604895Y-125787045D01*
X120666766Y-125476000D01*
X120666766Y-151715000D01*
X120332665Y-151715000D01*
X120332665Y-139892367D01*
X120305768Y-139827273D01*
X120332335Y-139763295D01*
X120332665Y-139384367D01*
X120305768Y-139319273D01*
X120332335Y-139255295D01*
X120332665Y-138876367D01*
X120305768Y-138811273D01*
X120332335Y-138747295D01*
X120332665Y-138368367D01*
X120305768Y-138303273D01*
X120332335Y-138239295D01*
X120332665Y-137860367D01*
X120187961Y-137510157D01*
X119920253Y-137241980D01*
X119570295Y-137096665D01*
X119191367Y-137096335D01*
X118841157Y-137241039D01*
X118572980Y-137508747D01*
X118427665Y-137858705D01*
X118427335Y-138237633D01*
X118454231Y-138302726D01*
X118427665Y-138366705D01*
X118427335Y-138745633D01*
X118454231Y-138810726D01*
X118427665Y-138874705D01*
X118427335Y-139253633D01*
X118454231Y-139318726D01*
X118427665Y-139382705D01*
X118427335Y-139761633D01*
X118454231Y-139826726D01*
X118427665Y-139890705D01*
X118427335Y-140269633D01*
X118572039Y-140619843D01*
X118839747Y-140888020D01*
X119189705Y-141033335D01*
X119568633Y-141033665D01*
X119918843Y-140888961D01*
X120187020Y-140621253D01*
X120332335Y-140271295D01*
X120332665Y-139892367D01*
X120332665Y-151715000D01*
X117284665Y-151715000D01*
X117284665Y-148782367D01*
X117139961Y-148432157D01*
X116872253Y-148163980D01*
X116522295Y-148018665D01*
X116268665Y-148018444D01*
X116268665Y-121985367D01*
X116123961Y-121635157D01*
X116014665Y-121525669D01*
X116014665Y-118683367D01*
X115869961Y-118333157D01*
X115602253Y-118064980D01*
X115252295Y-117919665D01*
X114873367Y-117919335D01*
X114523157Y-118064039D01*
X114254980Y-118331747D01*
X114109665Y-118681705D01*
X114109335Y-119060633D01*
X114254039Y-119410843D01*
X114521747Y-119679020D01*
X114871705Y-119824335D01*
X115250633Y-119824665D01*
X115600843Y-119679961D01*
X115869020Y-119412253D01*
X116014335Y-119062295D01*
X116014665Y-118683367D01*
X116014665Y-121525669D01*
X115856253Y-121366980D01*
X115506295Y-121221665D01*
X115127367Y-121221335D01*
X114777157Y-121366039D01*
X114508980Y-121633747D01*
X114363665Y-121983705D01*
X114363335Y-122362633D01*
X114508039Y-122712843D01*
X114775747Y-122981020D01*
X115125705Y-123126335D01*
X115504633Y-123126665D01*
X115854843Y-122981961D01*
X116123020Y-122714253D01*
X116268335Y-122364295D01*
X116268665Y-121985367D01*
X116268665Y-148018444D01*
X116143367Y-148018335D01*
X115793157Y-148163039D01*
X115524980Y-148430747D01*
X115379665Y-148780705D01*
X115379335Y-149159633D01*
X115524039Y-149509843D01*
X115791747Y-149778020D01*
X116141705Y-149923335D01*
X116520633Y-149923665D01*
X116870843Y-149778961D01*
X117139020Y-149511253D01*
X117284335Y-149161295D01*
X117284665Y-148782367D01*
X117284665Y-151715000D01*
X114248940Y-151715000D01*
X114248940Y-135191500D01*
X114248940Y-133540500D01*
X114201963Y-133298377D01*
X114062173Y-133085573D01*
X113851140Y-132943123D01*
X113728665Y-132918561D01*
X113728665Y-120207367D01*
X113583961Y-119857157D01*
X113316253Y-119588980D01*
X112966295Y-119443665D01*
X112587367Y-119443335D01*
X112237157Y-119588039D01*
X111968980Y-119855747D01*
X111823665Y-120205705D01*
X111823335Y-120584633D01*
X111968039Y-120934843D01*
X112235747Y-121203020D01*
X112585705Y-121348335D01*
X112964633Y-121348665D01*
X113314843Y-121203961D01*
X113583020Y-120936253D01*
X113728335Y-120586295D01*
X113728665Y-120207367D01*
X113728665Y-132918561D01*
X113601500Y-132893060D01*
X111950500Y-132893060D01*
X111708377Y-132940037D01*
X111696753Y-132947672D01*
X111696753Y-131536763D01*
X111474874Y-130999774D01*
X111064387Y-130588570D01*
X110527786Y-130365754D01*
X109946763Y-130365247D01*
X109409774Y-130587126D01*
X109347000Y-130649790D01*
X109347000Y-104266309D01*
X109347000Y-103409750D01*
X109188250Y-103251000D01*
X107823000Y-103251000D01*
X107823000Y-104616250D01*
X107981750Y-104775000D01*
X108585691Y-104775000D01*
X108838310Y-104775000D01*
X109071699Y-104678327D01*
X109250327Y-104499698D01*
X109347000Y-104266309D01*
X109347000Y-130649790D01*
X108998570Y-130997613D01*
X108775754Y-131534214D01*
X108775247Y-132115237D01*
X108997126Y-132652226D01*
X109407613Y-133063430D01*
X109944214Y-133286246D01*
X110525237Y-133286753D01*
X111062226Y-133064874D01*
X111473430Y-132654387D01*
X111696246Y-132117786D01*
X111696753Y-131536763D01*
X111696753Y-132947672D01*
X111495573Y-133079827D01*
X111353123Y-133290860D01*
X111303060Y-133540500D01*
X111303060Y-135191500D01*
X111350037Y-135433623D01*
X111489827Y-135646427D01*
X111700860Y-135788877D01*
X111950500Y-135838940D01*
X113601500Y-135838940D01*
X113843623Y-135791963D01*
X114056427Y-135652173D01*
X114198877Y-135441140D01*
X114248940Y-135191500D01*
X114248940Y-151715000D01*
X109156753Y-151715000D01*
X109156753Y-134076763D01*
X108934874Y-133539774D01*
X108524387Y-133128570D01*
X107987786Y-132905754D01*
X107406763Y-132905247D01*
X106869774Y-133127126D01*
X106458570Y-133537613D01*
X106235754Y-134074214D01*
X106235247Y-134655237D01*
X106457126Y-135192226D01*
X106867613Y-135603430D01*
X107404214Y-135826246D01*
X107985237Y-135826753D01*
X108522226Y-135604874D01*
X108933430Y-135194387D01*
X109156246Y-134657786D01*
X109156753Y-134076763D01*
X109156753Y-151715000D01*
X102044665Y-151715000D01*
X102044665Y-117984857D01*
X101899961Y-117634647D01*
X101632253Y-117366470D01*
X101471323Y-117299646D01*
X101645020Y-117126253D01*
X101790335Y-116776295D01*
X101790665Y-116397367D01*
X101645961Y-116047157D01*
X101378253Y-115778980D01*
X101028295Y-115633665D01*
X100904533Y-115633557D01*
X100904533Y-104459367D01*
X100759829Y-104109157D01*
X100492121Y-103840980D01*
X100142163Y-103695665D01*
X99763235Y-103695335D01*
X99413025Y-103840039D01*
X99144848Y-104107747D01*
X98999533Y-104457705D01*
X98999203Y-104836633D01*
X99143907Y-105186843D01*
X99411615Y-105455020D01*
X99761573Y-105600335D01*
X100140501Y-105600665D01*
X100490711Y-105455961D01*
X100758888Y-105188253D01*
X100904203Y-104838295D01*
X100904533Y-104459367D01*
X100904533Y-115633557D01*
X100649367Y-115633335D01*
X100299157Y-115778039D01*
X100030980Y-116045747D01*
X99885665Y-116395705D01*
X99885335Y-116774633D01*
X100030039Y-117124843D01*
X100297747Y-117393020D01*
X100458676Y-117459843D01*
X100284980Y-117633237D01*
X100139665Y-117983195D01*
X100139335Y-118362123D01*
X100284039Y-118712333D01*
X100551747Y-118980510D01*
X100901705Y-119125825D01*
X101280633Y-119126155D01*
X101630843Y-118981451D01*
X101899020Y-118713743D01*
X102044335Y-118363785D01*
X102044665Y-117984857D01*
X102044665Y-151715000D01*
X99758665Y-151715000D01*
X99758665Y-116905367D01*
X99613961Y-116555157D01*
X99346253Y-116286980D01*
X98996295Y-116141665D01*
X98617367Y-116141335D01*
X98267157Y-116286039D01*
X98126495Y-116426454D01*
X97980665Y-116280369D01*
X97980665Y-113984367D01*
X97835961Y-113634157D01*
X97568253Y-113365980D01*
X97218295Y-113220665D01*
X96839367Y-113220335D01*
X96489157Y-113365039D01*
X96220980Y-113632747D01*
X96075665Y-113982705D01*
X96075335Y-114361633D01*
X96220039Y-114711843D01*
X96487747Y-114980020D01*
X96837705Y-115125335D01*
X97216633Y-115125665D01*
X97566843Y-114980961D01*
X97835020Y-114713253D01*
X97980335Y-114363295D01*
X97980665Y-113984367D01*
X97980665Y-116280369D01*
X97936533Y-116236160D01*
X97586575Y-116090845D01*
X97207647Y-116090515D01*
X96857437Y-116235219D01*
X96589260Y-116502927D01*
X96443945Y-116852885D01*
X96443615Y-117231813D01*
X96588319Y-117582023D01*
X96856027Y-117850200D01*
X97205985Y-117995515D01*
X97584913Y-117995845D01*
X97935123Y-117851141D01*
X98075784Y-117710725D01*
X98265747Y-117901020D01*
X98615705Y-118046335D01*
X98994633Y-118046665D01*
X99344843Y-117901961D01*
X99613020Y-117634253D01*
X99758335Y-117284295D01*
X99758665Y-116905367D01*
X99758665Y-151715000D01*
X99504665Y-151715000D01*
X99504665Y-141289367D01*
X99359961Y-140939157D01*
X99092253Y-140670980D01*
X98742295Y-140525665D01*
X98363367Y-140525335D01*
X98013157Y-140670039D01*
X97903665Y-140779339D01*
X97903665Y-134100367D01*
X97758961Y-133750157D01*
X97491253Y-133481980D01*
X97141295Y-133336665D01*
X96762367Y-133336335D01*
X96412157Y-133481039D01*
X96227658Y-133665215D01*
X96227658Y-116784132D01*
X96082954Y-116433922D01*
X95815246Y-116165745D01*
X95465288Y-116020430D01*
X95086360Y-116020100D01*
X94736150Y-116164804D01*
X94467973Y-116432512D01*
X94322658Y-116782470D01*
X94322328Y-117161398D01*
X94467032Y-117511608D01*
X94734740Y-117779785D01*
X95084698Y-117925100D01*
X95463626Y-117925430D01*
X95813836Y-117780726D01*
X96082013Y-117513018D01*
X96227328Y-117163060D01*
X96227658Y-116784132D01*
X96227658Y-133665215D01*
X96143980Y-133748747D01*
X95998665Y-134098705D01*
X95998335Y-134477633D01*
X96143039Y-134827843D01*
X96410747Y-135096020D01*
X96760705Y-135241335D01*
X97139633Y-135241665D01*
X97489843Y-135096961D01*
X97758020Y-134829253D01*
X97903335Y-134479295D01*
X97903665Y-134100367D01*
X97903665Y-140779339D01*
X97744980Y-140937747D01*
X97599665Y-141287705D01*
X97599335Y-141666633D01*
X97744039Y-142016843D01*
X98011747Y-142285020D01*
X98361705Y-142430335D01*
X98740633Y-142430665D01*
X99090843Y-142285961D01*
X99359020Y-142018253D01*
X99504335Y-141668295D01*
X99504665Y-141289367D01*
X99504665Y-151715000D01*
X97218665Y-151715000D01*
X97218665Y-143321367D01*
X97073961Y-142971157D01*
X96806253Y-142702980D01*
X96456295Y-142557665D01*
X96077367Y-142557335D01*
X95727157Y-142702039D01*
X95458980Y-142969747D01*
X95313665Y-143319705D01*
X95313335Y-143698633D01*
X95458039Y-144048843D01*
X95725747Y-144317020D01*
X96075705Y-144462335D01*
X96454633Y-144462665D01*
X96804843Y-144317961D01*
X97073020Y-144050253D01*
X97218335Y-143700295D01*
X97218665Y-143321367D01*
X97218665Y-151715000D01*
X89998033Y-151715000D01*
X89998033Y-106628289D01*
X89853329Y-106278079D01*
X89585621Y-106009902D01*
X89235663Y-105864587D01*
X88856735Y-105864257D01*
X88506525Y-106008961D01*
X88238348Y-106276669D01*
X88093033Y-106626627D01*
X88092703Y-107005555D01*
X88237407Y-107355765D01*
X88505115Y-107623942D01*
X88855073Y-107769257D01*
X89234001Y-107769587D01*
X89584211Y-107624883D01*
X89852388Y-107357175D01*
X89997703Y-107007217D01*
X89998033Y-106628289D01*
X89998033Y-151715000D01*
X84772665Y-151715000D01*
X84772665Y-105475367D01*
X84627961Y-105125157D01*
X84360253Y-104856980D01*
X84010295Y-104711665D01*
X83631367Y-104711335D01*
X83281157Y-104856039D01*
X83012980Y-105123747D01*
X82867665Y-105473705D01*
X82867443Y-105727554D01*
X82615367Y-105727335D01*
X82265157Y-105872039D01*
X81996980Y-106139747D01*
X81851665Y-106489705D01*
X81851335Y-106868633D01*
X81996039Y-107218843D01*
X82263747Y-107487020D01*
X82613705Y-107632335D01*
X82818426Y-107632513D01*
X82672658Y-107778027D01*
X82527343Y-108127985D01*
X82527013Y-108506913D01*
X82671717Y-108857123D01*
X82939425Y-109125300D01*
X83289383Y-109270615D01*
X83668311Y-109270945D01*
X84018521Y-109126241D01*
X84286698Y-108858533D01*
X84432013Y-108508575D01*
X84432343Y-108129647D01*
X84287639Y-107779437D01*
X84019931Y-107511260D01*
X83669973Y-107365945D01*
X83465251Y-107365766D01*
X83611020Y-107220253D01*
X83756335Y-106870295D01*
X83756556Y-106616445D01*
X84008633Y-106616665D01*
X84358843Y-106471961D01*
X84627020Y-106204253D01*
X84772335Y-105854295D01*
X84772665Y-105475367D01*
X84772665Y-151715000D01*
X82232665Y-151715000D01*
X82232665Y-108269367D01*
X82087961Y-107919157D01*
X81820253Y-107650980D01*
X81470295Y-107505665D01*
X81091367Y-107505335D01*
X80741157Y-107650039D01*
X80472980Y-107917747D01*
X80327665Y-108267705D01*
X80327335Y-108646633D01*
X80472039Y-108996843D01*
X80739747Y-109265020D01*
X81089705Y-109410335D01*
X81468633Y-109410665D01*
X81818843Y-109265961D01*
X82087020Y-108998253D01*
X82232335Y-108648295D01*
X82232665Y-108269367D01*
X82232665Y-151715000D01*
X77660665Y-151715000D01*
X77660665Y-150433367D01*
X77515961Y-150083157D01*
X77248253Y-149814980D01*
X76898295Y-149669665D01*
X76519367Y-149669335D01*
X76169157Y-149814039D01*
X75900980Y-150081747D01*
X75755665Y-150431705D01*
X75755335Y-150810633D01*
X75900039Y-151160843D01*
X76167747Y-151429020D01*
X76517705Y-151574335D01*
X76896633Y-151574665D01*
X77246843Y-151429961D01*
X77515020Y-151162253D01*
X77660335Y-150812295D01*
X77660665Y-150433367D01*
X77660665Y-151715000D01*
X74853000Y-151715000D01*
X74853000Y-108921722D01*
X74884039Y-108996843D01*
X75151747Y-109265020D01*
X75447142Y-109387678D01*
X75392980Y-109441747D01*
X75247665Y-109791705D01*
X75247335Y-110170633D01*
X75392039Y-110520843D01*
X75659747Y-110789020D01*
X76009705Y-110934335D01*
X76388633Y-110934665D01*
X76738843Y-110789961D01*
X77007020Y-110522253D01*
X77152335Y-110172295D01*
X77152665Y-109793367D01*
X77007961Y-109443157D01*
X76740253Y-109174980D01*
X76444857Y-109052321D01*
X76499020Y-108998253D01*
X76644335Y-108648295D01*
X76644665Y-108269367D01*
X76499961Y-107919157D01*
X76232253Y-107650980D01*
X75882295Y-107505665D01*
X75503367Y-107505335D01*
X75153157Y-107650039D01*
X74884980Y-107917747D01*
X74853000Y-107994763D01*
X74853000Y-102285000D01*
X103747502Y-102285000D01*
X103630675Y-102459845D01*
X103505000Y-103091655D01*
X103505000Y-103156345D01*
X103630675Y-103788155D01*
X103988567Y-104323778D01*
X104524190Y-104681670D01*
X105156000Y-104807345D01*
X105787810Y-104681670D01*
X106124001Y-104457034D01*
X106141673Y-104499698D01*
X106320301Y-104678327D01*
X106553690Y-104775000D01*
X106806309Y-104775000D01*
X107410250Y-104775000D01*
X107569000Y-104616250D01*
X107569000Y-103251000D01*
X107549000Y-103251000D01*
X107549000Y-102997000D01*
X107569000Y-102997000D01*
X107569000Y-102977000D01*
X107823000Y-102977000D01*
X107823000Y-102997000D01*
X109188250Y-102997000D01*
X109347000Y-102838250D01*
X109347000Y-102285000D01*
X119507409Y-102285000D01*
X119298017Y-102741054D01*
X119416633Y-102997000D01*
X120777000Y-102997000D01*
X120777000Y-102977000D01*
X121031000Y-102977000D01*
X121031000Y-102997000D01*
X121051000Y-102997000D01*
X121051000Y-103251000D01*
X121031000Y-103251000D01*
X121031000Y-104610836D01*
X121286944Y-104729975D01*
X121768818Y-104530385D01*
X121865835Y-104440425D01*
X121967327Y-104594927D01*
X122178360Y-104737377D01*
X122428000Y-104787440D01*
X124283000Y-104787440D01*
X124283000Y-151715000D01*
M02*
